<svg width="28" height="20" viewBox="0 0 28 20" fill="none" xmlns="http://www.w3.org/2000/svg">
<path d="M16.25 7.375V5.25C16.9375 4.95833 17.6408 4.73958 18.36 4.59375C19.0792 4.44792 19.8342 4.375 20.625 4.375C21.1667 4.375 21.6979 4.41667 22.2188 4.5C22.7396 4.58333 23.25 4.6875 23.75 4.8125V6.8125C23.25 6.625 22.7446 6.48417 22.2338 6.39C21.7229 6.29583 21.1867 6.24917 20.625 6.25C19.8333 6.25 19.0729 6.34917 18.3438 6.5475C17.6146 6.74583 16.9167 7.02167 16.25 7.375ZM16.25 14.25V12.125C16.9375 11.8333 17.6408 11.6146 18.36 11.4688C19.0792 11.3229 19.8342 11.25 20.625 11.25C21.1667 11.25 21.6979 11.2917 22.2188 11.375C22.7396 11.4583 23.25 11.5625 23.75 11.6875V13.6875C23.25 13.5 22.7446 13.3592 22.2338 13.265C21.7229 13.1708 21.1867 13.1242 20.625 13.125C19.8333 13.125 19.0729 13.2188 18.3438 13.4062C17.6146 13.5938 16.9167 13.875 16.25 14.25ZM16.25 10.8125V8.6875C16.9375 8.39583 17.6408 8.17708 18.36 8.03125C19.0792 7.88542 19.8342 7.8125 20.625 7.8125C21.1667 7.8125 21.6979 7.85417 22.2188 7.9375C22.7396 8.02083 23.25 8.125 23.75 8.25V10.25C23.25 10.0625 22.7446 9.92167 22.2338 9.8275C21.7229 9.73333 21.1867 9.68667 20.625 9.6875C19.8333 9.6875 19.0729 9.78667 18.3438 9.985C17.6146 10.1833 16.9167 10.4592 16.25 10.8125ZM6.875 15C7.85417 15 8.8075 15.1096 9.735 15.3288C10.6625 15.5479 11.5842 15.8758 12.5 16.3125V4C11.6458 3.5 10.7396 3.125 9.78125 2.875C8.82292 2.625 7.85417 2.5 6.875 2.5C6.125 2.5 5.38 2.57292 4.64 2.71875C3.9 2.86458 3.18667 3.08333 2.5 3.375V15.75C3.22917 15.5 3.95333 15.3125 4.6725 15.1875C5.39167 15.0625 6.12583 15 6.875 15ZM15 16.3125C15.9167 15.875 16.8383 15.5467 17.765 15.3275C18.6917 15.1083 19.645 14.9992 20.625 15C21.375 15 22.1096 15.0625 22.8288 15.1875C23.5479 15.3125 24.2717 15.5 25 15.75V3.375C24.3125 3.08333 23.5988 2.86458 22.8588 2.71875C22.1188 2.57292 21.3742 2.5 20.625 2.5C19.6458 2.5 18.6771 2.625 17.7188 2.875C16.7604 3.125 15.8542 3.5 15 4V16.3125ZM13.75 20C12.75 19.2083 11.6667 18.5938 10.5 18.1562C9.33333 17.7188 8.125 17.5 6.875 17.5C6 17.5 5.14042 17.6146 4.29625 17.8438C3.45208 18.0729 2.645 18.3958 1.875 18.8125C1.4375 19.0417 1.01583 19.0312 0.61 18.7812C0.204167 18.5312 0.000833333 18.1667 0 17.6875V2.625C0 2.39583 0.0575 2.17708 0.1725 1.96875C0.2875 1.76042 0.459167 1.60417 0.6875 1.5C1.64583 1 2.64583 0.625 3.6875 0.375C4.72917 0.125 5.79167 0 6.875 0C8.08333 0 9.26583 0.15625 10.4225 0.46875C11.5792 0.78125 12.6883 1.25 13.75 1.875C14.8125 1.25 15.9221 0.78125 17.0788 0.46875C18.2354 0.15625 19.4175 0 20.625 0C21.7083 0 22.7708 0.125 23.8125 0.375C24.8542 0.625 25.8542 1 26.8125 1.5C27.0417 1.60417 27.2138 1.76042 27.3288 1.96875C27.4438 2.17708 27.5008 2.39583 27.5 2.625V17.6875C27.5 18.1667 27.2971 18.5312 26.8913 18.7812C26.4854 19.0312 26.0633 19.0417 25.625 18.8125C24.8542 18.3958 24.0471 18.0729 23.2038 17.8438C22.3604 17.6146 21.5008 17.5 20.625 17.5C19.375 17.5 18.1667 17.7188 17 18.1562C15.8333 18.5938 14.75 19.2083 13.75 20Z" fill="#4095EB" fill-opacity="0.7"/>
</svg>
