<svg width="29" height="29" viewBox="0 0 29 29" fill="none" xmlns="http://www.w3.org/2000/svg">
<path d="M24.1063 4.89385C18.8047 -0.40771 10.1953 -0.430366 4.89377 4.89385C-0.43045 10.1954 -0.43045 18.8048 4.89377 24.1063C7.54455 26.7571 11.011 28.0938 14.5 28.0938C17.9891 28.0938 21.4555 26.7571 24.1063 24.1063C29.4305 18.8048 29.4305 10.1954 24.1063 4.89385Z" fill="white"/>
<path d="M14.5 23.3359C19.38 23.3359 23.3359 19.38 23.3359 14.5C23.3359 9.62005 19.38 5.66406 14.5 5.66406C9.62005 5.66406 5.66406 9.62005 5.66406 14.5C5.66406 19.38 9.62005 23.3359 14.5 23.3359Z" fill="#8FDC98"/>
<path d="M14.5 0.226562C10.6938 0.226562 7.11406 1.72188 4.41797 4.41797C4.14609 4.68984 4.14609 5.12031 4.41797 5.36953C4.68984 5.64141 5.12031 5.64141 5.36953 5.36953C7.81641 2.92266 11.0562 1.58594 14.5 1.58594C21.6141 1.58594 27.4141 7.38594 27.4141 14.5C27.4141 21.6141 21.6141 27.4141 14.5 27.4141C10.875 27.4141 7.52187 25.9414 5.075 23.3359H7.70312C8.08828 23.3359 8.38281 23.0414 8.38281 22.6562C8.38281 22.2711 8.08828 21.9766 7.70312 21.9766H3.625C3.23984 21.9766 2.94531 22.2711 2.94531 22.6562V26.7344C2.94531 27.1195 3.23984 27.4141 3.625 27.4141C4.01016 27.4141 4.30469 27.1195 4.30469 26.7344V24.4914C6.97813 27.2328 10.6031 28.7734 14.5 28.7734C22.3617 28.7734 28.7734 22.3617 28.7734 14.5C28.7734 6.63828 22.3617 0.226562 14.5 0.226562Z" fill="#444B54"/>
<path d="M1.67653 19.7108C1.40466 19.7108 1.13278 19.5295 1.04216 19.2577C0.770282 18.51 0.566376 17.7397 0.430439 16.9467C0.36247 16.5842 0.611689 16.2217 0.974189 16.1538C1.33669 16.0858 1.69919 16.335 1.76716 16.6975C1.88044 17.3999 2.06169 18.1022 2.31091 18.7819C2.44684 19.1444 2.24294 19.5295 1.90309 19.6428C1.83513 19.6881 1.7445 19.7108 1.67653 19.7108Z" fill="#444B54"/>
<path d="M1.04219 13.2538C1.01953 13.2538 0.974217 13.2538 0.95156 13.2538C0.58906 13.2085 0.317185 12.846 0.385154 12.4835C0.58906 10.9882 1.04219 9.56086 1.69922 8.20148C1.85781 7.86164 2.26562 7.7257 2.60547 7.8843C2.94531 8.04289 3.08125 8.4507 2.92265 8.79055C2.31094 10.014 1.90312 11.328 1.72187 12.6648C1.67656 13.0046 1.38203 13.2538 1.04219 13.2538Z" fill="#444B54"/>
</svg>
