<svg width="307" height="201" viewBox="0 0 307 201" fill="none" xmlns="http://www.w3.org/2000/svg">
<path d="M23.3301 20.0508H272.94C276.5 20.0508 279.4 22.9408 279.4 26.5108V174.271C279.4 177.831 276.51 180.731 272.94 180.731H23.3301C19.7701 180.731 16.8701 177.841 16.8701 174.271V26.5108C16.8701 22.9508 19.7601 20.0508 23.3301 20.0508Z" fill="#BBF1F6" stroke="url(#paint0_linear_3232_32634)" stroke-linecap="round" stroke-linejoin="round"/>
<path d="M271.14 36.5508H25.1201V170.681H271.14V36.5508Z" fill="#39C7BB" stroke="#556A69" stroke-linecap="round" stroke-linejoin="round"/>
<g style="mix-blend-mode:multiply">
<path d="M29.7901 165.661V36.5508H25.1201V170.681H271.15V165.661H29.7901Z" fill="#ABB9C1"/>
</g>
<path d="M1.08008 180.721H305.85C305.85 180.721 305.85 200.451 288.99 200.451H19.3701C4.85008 200.451 1.08008 180.721 1.08008 180.721Z" fill="#BBF1F6" stroke="url(#paint1_linear_3232_32634)" stroke-linecap="round" stroke-linejoin="round"/>
<path d="M271.14 36.5508H25.1201V49.4608H271.14V36.5508Z" fill="#556A69" stroke="#556A69" stroke-linecap="round" stroke-linejoin="round"/>
<path d="M243.53 43.5405C243.53 45.6205 241.84 47.3105 239.76 47.3105C237.68 47.3105 235.99 45.6205 235.99 43.5405C235.99 41.4605 237.68 39.7705 239.76 39.7705C241.84 39.7705 243.53 41.4605 243.53 43.5405Z" fill="#F6F6F6" stroke="#556A69" stroke-width="2.15" stroke-linecap="round" stroke-linejoin="round"/>
<path d="M254.47 43.5405C254.47 45.6205 252.78 47.3105 250.71 47.3105C248.64 47.3105 246.94 45.6205 246.94 43.5405C246.94 41.4605 248.63 39.7705 250.71 39.7705C252.79 39.7705 254.47 41.4605 254.47 43.5405Z" fill="#A9E5EB"/>
<path d="M265.41 43.5405C265.41 45.6205 263.72 47.3105 261.64 47.3105C259.56 47.3105 257.88 45.6205 257.88 43.5405C257.88 41.4605 259.57 39.7705 261.64 39.7705C263.71 39.7705 265.41 41.4605 265.41 43.5405Z" fill="#A9E5EB"/>
<path d="M168.941 43.0005C168.941 45.0805 167.251 46.7705 165.171 46.7705H41.0805C39.0005 46.7705 37.3105 45.0805 37.3105 43.0005C37.3105 40.9205 39.0005 39.2305 41.0805 39.2305H165.171C167.251 39.2305 168.941 40.9205 168.941 43.0005Z" fill="#A9E5EB"/>
<path d="M158.71 29.0205C158.71 31.9205 156.36 34.2705 153.47 34.2705C150.58 34.2705 148.23 31.9205 148.23 29.0205C148.23 26.1205 150.58 23.7705 153.47 23.7705C156.36 23.7705 158.71 26.1205 158.71 29.0205Z" fill="#45BABD" stroke="#556A69" stroke-width="2.15" stroke-linecap="round" stroke-linejoin="round"/>
<path d="M144.451 27.4404H58.0605V154.39H144.451V27.4404Z" fill="#556A69"/>
<path d="M248.12 27.4404H161.73V154.39H248.12V27.4404Z" fill="#556A69"/>
<path d="M161.73 27.4404H144.45V154.39H161.73V27.4404Z" fill="#AC2011" stroke="#556A69" stroke-width="2.97" stroke-linecap="round" stroke-linejoin="round"/>
<path d="M148.9 154.391C136.75 132.491 62.5098 148.451 62.5098 148.451V21.5006C62.5098 21.5006 131.92 -0.0294266 148.9 27.4406V154.391Z" fill="#E6FBFD" stroke="url(#paint2_linear_3232_32634)" stroke-linecap="round" stroke-linejoin="round"/>
<path d="M153.09 154.39C140.94 132.49 66.7002 138.06 66.7002 138.06V11.1102C66.7002 11.1102 136.12 -0.0297832 153.09 27.4402V154.39Z" fill="#E6FBFD" stroke="url(#paint3_linear_3232_32634)" stroke-linecap="round" stroke-linejoin="round"/>
<path d="M155.69 154.39C143.54 132.49 78.1104 128.41 78.1104 128.41V1.4603C78.1104 1.4603 138.72 -0.0196934 155.69 27.4403V154.39Z" fill="#E6FBFD" stroke="url(#paint4_linear_3232_32634)" stroke-linecap="round" stroke-linejoin="round"/>
<path d="M109.483 61.5583L130.746 73.8812C133.751 75.7413 133.751 80.159 130.746 82.0191L109.714 94.342C106.709 96.2021 103.011 93.877 103.011 90.3894V65.7434C102.78 62.0233 106.247 59.9307 109.483 61.5583Z" fill="#ED4136"/>
<g style="mix-blend-mode:multiply" opacity="0.5">
<path d="M147.521 18.4707V146.031C151.101 148.481 153.941 151.251 155.691 154.391V27.4407C153.581 24.0207 150.791 21.0507 147.521 18.4707Z" fill="#BCCDD8"/>
</g>
<path d="M162.47 154.391C174.62 132.491 248.86 148.451 248.86 148.451V21.5006C248.86 21.5006 179.45 -0.0294266 162.47 27.4406V154.391Z" fill="#E6FBFD" stroke="url(#paint5_linear_3232_32634)" stroke-linecap="round" stroke-linejoin="round"/>
<path d="M158.29 154.39C170.44 132.49 244.68 138.06 244.68 138.06V11.1102C244.68 11.1102 175.26 -0.0297832 158.29 27.4402V154.39Z" fill="#E6FBFD" stroke="url(#paint6_linear_3232_32634)" stroke-linecap="round" stroke-linejoin="round"/>
<path d="M155.69 154.39C167.84 132.49 233.27 128.41 233.27 128.41V1.4603C233.27 1.4603 172.66 -0.0196934 155.69 27.4403V154.39Z" fill="#E6FBFD" stroke="url(#paint7_linear_3232_32634)" stroke-linecap="round" stroke-linejoin="round"/>
<path d="M180.919 50.7436C180.518 50.7436 180.15 50.4696 180.034 50.069C179.897 49.5842 180.192 49.0782 180.677 48.9412C193.642 45.4522 206.912 42.4481 220.12 40.0132C220.615 39.9289 221.1 40.2557 221.184 40.7511C221.279 41.2465 220.942 41.7314 220.446 41.8157C207.292 44.2295 194.074 47.2231 181.151 50.7015C181.067 50.7226 180.993 50.7331 180.908 50.7331L180.919 50.7436Z" fill="#556A69"/>
<path d="M180.919 66.1138C180.518 66.1138 180.15 65.8397 180.034 65.4391C179.897 64.9543 180.192 64.4483 180.677 64.3113C193.642 60.8223 206.912 57.8183 220.12 55.3834C220.615 55.299 221.1 55.6258 221.184 56.1212C221.279 56.6166 220.942 57.1015 220.446 57.1858C207.292 59.5996 194.074 62.5932 181.151 66.0716C181.067 66.0927 180.993 66.1032 180.908 66.1032L180.919 66.1138Z" fill="#556A69"/>
<path d="M180.919 83.4024C180.518 83.4024 180.15 83.1284 180.034 82.7278C179.897 82.243 180.192 81.737 180.677 81.6C189.341 79.26 198.206 77.2467 207.039 75.6234C207.534 75.5286 208.019 75.8659 208.103 76.3613C208.198 76.8567 207.861 77.3415 207.366 77.4259C198.585 79.0491 189.763 81.0413 181.151 83.3708C181.067 83.3919 180.993 83.4024 180.908 83.4024H180.919Z" fill="#556A69"/>
<path d="M180.92 100.711C180.509 100.711 180.129 100.437 180.034 100.015C179.908 99.5198 180.214 99.0244 180.709 98.9084C190.175 96.5684 199.861 94.5551 209.506 92.9319C210.002 92.8475 210.476 93.1848 210.56 93.6803C210.644 94.1757 210.307 94.65 209.812 94.7343C200.209 96.3576 190.565 98.3498 181.141 100.679C181.067 100.7 180.994 100.711 180.92 100.711Z" fill="#556A69"/>
<g style="mix-blend-mode:multiply" opacity="0.5">
<path d="M162.74 19.3799C159.95 21.7399 157.55 24.4099 155.69 27.4399V154.39C157.25 151.58 159.69 149.07 162.74 146.82V19.3799Z" fill="#BCCDD8"/>
</g>
<defs>
<linearGradient id="paint0_linear_3232_32634" x1="148.135" y1="20.0508" x2="148.135" y2="180.731" gradientUnits="userSpaceOnUse">
<stop stop-color="#556A69"/>
<stop offset="1" stop-color="#A7D0CE"/>
</linearGradient>
<linearGradient id="paint1_linear_3232_32634" x1="147.5" y1="181" x2="147.5" y2="200" gradientUnits="userSpaceOnUse">
<stop stop-color="#556A69"/>
<stop offset="1" stop-color="#A6DFE2"/>
</linearGradient>
<linearGradient id="paint2_linear_3232_32634" x1="105.705" y1="13.4756" x2="105.705" y2="154.391" gradientUnits="userSpaceOnUse">
<stop stop-color="#556A69"/>
<stop offset="1" stop-color="#A7D0CE"/>
</linearGradient>
<linearGradient id="paint3_linear_3232_32634" x1="109.895" y1="8.87598" x2="109.895" y2="154.39" gradientUnits="userSpaceOnUse">
<stop stop-color="#556A69"/>
<stop offset="1" stop-color="#A7D0CE"/>
</linearGradient>
<linearGradient id="paint4_linear_3232_32634" x1="116.9" y1="1.44629" x2="116.9" y2="154.39" gradientUnits="userSpaceOnUse">
<stop stop-color="#556A69"/>
<stop offset="1" stop-color="#A7D0CE"/>
</linearGradient>
<linearGradient id="paint5_linear_3232_32634" x1="205.665" y1="13.4756" x2="205.665" y2="154.391" gradientUnits="userSpaceOnUse">
<stop stop-color="#556A69"/>
<stop offset="1" stop-color="#A7D0CE"/>
</linearGradient>
<linearGradient id="paint6_linear_3232_32634" x1="201.485" y1="8.87598" x2="201.485" y2="154.39" gradientUnits="userSpaceOnUse">
<stop stop-color="#556A69"/>
<stop offset="1" stop-color="#A7D0CE"/>
</linearGradient>
<linearGradient id="paint7_linear_3232_32634" x1="194.48" y1="1.44629" x2="194.48" y2="154.39" gradientUnits="userSpaceOnUse">
<stop stop-color="#556A69"/>
<stop offset="1" stop-color="#A7D0CE"/>
</linearGradient>
</defs>
</svg>
