<svg width="15" height="14" viewBox="0 0 15 14" fill="none" xmlns="http://www.w3.org/2000/svg">
<path d="M2.08333 1.49935H4.16667V1.08268C4.16667 0.972175 4.21057 0.866195 4.28871 0.788055C4.36685 0.709914 4.47283 0.666016 4.58333 0.666016C4.69384 0.666016 4.79982 0.709914 4.87796 0.788055C4.9561 0.866195 5 0.972175 5 1.08268V1.49935H10V1.08268C10 0.972175 10.0439 0.866195 10.122 0.788055C10.2002 0.709914 10.3062 0.666016 10.4167 0.666016C10.5272 0.666016 10.6332 0.709914 10.7113 0.788055C10.7894 0.866195 10.8333 0.972175 10.8333 1.08268V1.49935H12.9167C13.4692 1.49935 13.9991 1.71884 14.3898 2.10954C14.7805 2.50024 15 3.03015 15 3.58268V11.916C15 12.4685 14.7805 12.9985 14.3898 13.3892C13.9991 13.7799 13.4692 13.9993 12.9167 13.9993H2.08333C1.5308 13.9993 1.0009 13.7799 0.610194 13.3892C0.219494 12.9985 0 12.4685 0 11.916V3.58268C0 3.03015 0.219494 2.50024 0.610194 2.10954C1.0009 1.71884 1.5308 1.49935 2.08333 1.49935ZM0.833334 11.916C0.833334 12.2475 0.965031 12.5655 1.19945 12.7999C1.43387 13.0343 1.75181 13.166 2.08333 13.166H12.9167C13.2482 13.166 13.5661 13.0343 13.8006 12.7999C14.035 12.5655 14.1667 12.2475 14.1667 11.916V5.66602H0.833334V11.916ZM0.833334 4.83268H14.1667V3.58268C14.1667 3.25116 14.035 2.93322 13.8006 2.6988C13.5661 2.46438 13.2482 2.33268 12.9167 2.33268H10.8333V2.74935C10.8333 2.85986 10.7894 2.96584 10.7113 3.04398C10.6332 3.12212 10.5272 3.16602 10.4167 3.16602C10.3062 3.16602 10.2002 3.12212 10.122 3.04398C10.0439 2.96584 10 2.85986 10 2.74935V2.33268H5V2.74935C5 2.85986 4.9561 2.96584 4.87796 3.04398C4.79982 3.12212 4.69384 3.16602 4.58333 3.16602C4.47283 3.16602 4.36685 3.12212 4.28871 3.04398C4.21057 2.96584 4.16667 2.85986 4.16667 2.74935V2.33268H2.08333C1.75181 2.33268 1.43387 2.46438 1.19945 2.6988C0.965031 2.93322 0.833334 3.25116 0.833334 3.58268V4.83268Z" fill="black"/>
</svg>
