<svg width="41" height="35" viewBox="0 0 41 35" fill="none" xmlns="http://www.w3.org/2000/svg">
<path d="M20.1247 14.4896C24.1259 14.4896 27.3695 11.246 27.3695 7.24482C27.3695 3.24362 24.1259 0 20.1247 0C16.1235 0 12.8799 3.24362 12.8799 7.24482C12.8799 11.246 16.1235 14.4896 20.1247 14.4896Z" fill="#E1F1F4"/>
<path d="M33.8099 14.4893C36.4773 14.4893 38.6397 12.3269 38.6397 9.65947C38.6397 6.992 36.4773 4.82959 33.8099 4.82959C31.1424 4.82959 28.98 6.992 28.98 9.65947C28.98 12.3269 31.1424 14.4893 33.8099 14.4893Z" fill="white"/>
<path d="M6.43974 14.4893C9.10721 14.4893 11.2696 12.3269 11.2696 9.65947C11.2696 6.992 9.10721 4.82959 6.43974 4.82959C3.77227 4.82959 1.60986 6.992 1.60986 9.65947C1.60986 12.3269 3.77227 14.4893 6.43974 14.4893Z" fill="white"/>
<path d="M10.5291 17.471C8.83063 16.0784 7.29151 16.2635 5.32736 16.2635C3.91857 16.2597 2.56594 16.8155 1.56691 17.8088C0.567883 18.8021 0.0042638 20.1515 0 21.5603L0 30.1301C0.00170547 30.7407 0.245575 31.3257 0.678097 31.7567C1.11062 32.1877 1.69646 32.4296 2.30707 32.4291C7.80187 32.4291 7.13695 32.529 7.13695 32.1925C7.14017 26.1197 6.42213 21.6666 10.5291 17.471Z" fill="white"/>
<path d="M21.9568 16.2972C18.526 16.0106 15.5428 16.2972 12.9717 18.4239C8.66663 21.8725 9.49575 26.514 9.49575 32.1939C9.49703 32.9224 9.78699 33.6207 10.3021 34.1358C10.8172 34.6509 11.5155 34.9408 12.244 34.9421C28.8072 34.9421 29.4705 35.4766 30.4494 33.3016C30.7714 32.5658 30.6828 32.7992 30.6828 25.7637C30.6793 23.3794 29.7805 21.0833 28.1645 19.3301C26.5485 17.5769 24.333 16.4945 21.9568 16.2972Z" fill="#E1F1F4"/>
<path d="M34.8482 16.2632C32.8728 16.2632 31.3434 16.0813 29.6465 17.4707C33.7245 21.634 33.0355 25.7829 33.0355 32.1905C33.0355 32.5286 32.4865 32.4272 37.7864 32.4272C38.4191 32.4281 39.0263 32.1778 39.4745 31.7313C39.9228 31.2849 40.1756 30.6787 40.1773 30.0461V21.5584C40.1726 20.1496 39.6085 18.8003 38.6092 17.8074C37.6099 16.8144 36.257 16.2589 34.8482 16.2632Z" fill="white"/>
</svg>
