<svg width="25" height="33" viewBox="0 0 25 33" fill="none" xmlns="http://www.w3.org/2000/svg">
<g clip-path="url(#clip0_2818_18116)">
<path d="M22.6369 6.00609L22.4581 8.06172L21.836 15.1258L21.7466 16.157H18.2988L19.0344 7.76266L19.2131 5.70703L20.1481 5.78953L22.6369 6.00609Z" fill="#FFFAEA"/>
<path d="M22.6372 6.00272L19.2128 5.70312L19.0331 7.75778L22.4575 8.05737L22.6372 6.00272Z" fill="#8289A2"/>
<path d="M22.8809 3.26529L22.7091 5.23497L22.6403 6.00497L19.2028 5.70591L19.4434 2.95591C19.4696 2.68899 19.5988 2.44277 19.8035 2.26949C20.0082 2.09622 20.2724 2.00952 20.54 2.02779C20.5502 2.02606 20.5607 2.02606 20.5709 2.02779L21.9459 2.1481C22.218 2.17255 22.4692 2.3039 22.6445 2.51335C22.8198 2.72279 22.9048 2.99322 22.8809 3.26529Z" fill="#D6D8DB"/>
<path d="M15.6624 4.46875H11.5374V12.7188H15.6624V4.46875Z" fill="#ED4136"/>
<path d="M14.9747 2.75V4.46875H12.2247V2.75C12.2247 2.38533 12.3695 2.03559 12.6274 1.77773C12.8853 1.51987 13.235 1.375 13.5997 1.375C13.9643 1.375 14.3141 1.51987 14.5719 1.77773C14.8298 2.03559 14.9747 2.38533 14.9747 2.75Z" fill="#FFFAEA"/>
<path d="M15.3182 12.7188H11.8807V16.1562H15.3182V12.7188Z" fill="#FFFAEA"/>
<path d="M11.1315 16.1562H4.50061L4.18092 14.3413L3.46592 10.2781H3.46248L3.10498 8.25L2.74748 6.21844L2.38998 4.18688L1.91217 1.47813L3.0878 1.27188L8.34373 0.34375L10.9494 15.125L11.1315 16.1562Z" fill="#FFFAEA"/>
<path d="M23.2244 16.1562H2.59943V19.5938H23.2244V16.1562Z" fill="#B8D8A4"/>
<path d="M22.5374 19.5938L21.2724 31.625L21.1624 32.6562H4.66235L3.28735 19.5938H22.5374Z" fill="#FFE271"/>
<path d="M18.0682 24.4063V27.8438C18.0696 27.9938 18.044 28.1429 17.9926 28.2838C17.9007 28.5558 17.726 28.7922 17.493 28.9599C17.2599 29.1276 16.9803 29.2181 16.6932 29.2188H9.13068C8.766 29.2188 8.41627 29.0739 8.1584 28.8161C7.90054 28.5582 7.75568 28.2085 7.75568 27.8438V24.4063C7.75637 24.1192 7.84691 23.8396 8.01459 23.6065C8.18227 23.3735 8.41869 23.1988 8.69068 23.1069C8.8316 23.0555 8.98066 23.0299 9.13068 23.0313H16.6932C17.0578 23.0313 17.4076 23.1762 17.6654 23.434C17.9233 23.6919 18.0682 24.0416 18.0682 24.4063Z" fill="white"/>
<path d="M23.2245 15.8126H22.1211L22.8086 8.09537L22.9908 6.03287L23.228 3.28287C23.2594 2.92012 23.1457 2.55968 22.9118 2.28065C22.6779 2.00161 22.3428 1.82675 21.9802 1.79444L20.6052 1.67412C20.4231 1.65619 20.2393 1.67477 20.0645 1.72876C19.8897 1.78275 19.7275 1.87108 19.5873 1.98857C19.4471 2.10605 19.3317 2.25034 19.248 2.41297C19.1642 2.5756 19.1137 2.75331 19.0995 2.93569L18.8589 5.68569L18.6802 7.74819L17.9823 15.8126H15.662V13.0626C15.7532 13.0626 15.8406 13.0263 15.9051 12.9619C15.9696 12.8974 16.0058 12.81 16.0058 12.7188V5.47944C16.2064 5.55036 16.3801 5.68158 16.5032 5.85513C16.6263 6.02868 16.6927 6.23605 16.6933 6.44881V14.7813C16.6933 14.8725 16.7295 14.9599 16.794 15.0244C16.8584 15.0888 16.9459 15.1251 17.037 15.1251C17.1282 15.1251 17.2156 15.0888 17.2801 15.0244C17.3446 14.9599 17.3808 14.8725 17.3808 14.7813V6.44881C17.3809 6.05259 17.244 5.6685 16.9935 5.36156C16.7429 5.05462 16.394 4.84368 16.0058 4.76444V4.46881C16.0058 4.37764 15.9696 4.29021 15.9051 4.22574C15.8406 4.16128 15.7532 4.12506 15.662 4.12506H15.3183V2.75006C15.3183 2.29422 15.1372 1.85705 14.8149 1.53472C14.4925 1.21239 14.0554 1.03131 13.5995 1.03131C13.1437 1.03131 12.7065 1.21239 12.3842 1.53472C12.0619 1.85705 11.8808 2.29422 11.8808 2.75006V4.12506H11.537C11.4459 4.12506 11.3584 4.16128 11.294 4.22574C11.2295 4.29021 11.1933 4.37764 11.1933 4.46881V12.7188C11.1933 12.81 11.2295 12.8974 11.294 12.9619C11.3584 13.0263 11.4459 13.0626 11.537 13.0626V15.8126H11.4202L8.68047 0.285373C8.67287 0.240675 8.65651 0.197922 8.63232 0.159575C8.60813 0.121228 8.57659 0.0880444 8.53953 0.0619356C8.46622 0.00856635 8.37479 -0.0136733 8.28515 6.05765e-05L1.85359 1.13787C1.80862 1.14589 1.7657 1.16278 1.72734 1.18757C1.68898 1.21236 1.65594 1.24455 1.63015 1.28225C1.57919 1.35655 1.55944 1.4479 1.57515 1.53662L3.12203 10.3366C3.12005 10.3526 3.12005 10.3688 3.12203 10.3847L3.46578 12.3647L3.80953 14.3826L4.0914 15.8126H2.59953C2.50836 15.8126 2.42093 15.8488 2.35646 15.9132C2.292 15.9777 2.25578 16.0651 2.25578 16.1563V19.5938C2.25578 19.685 2.292 19.7724 2.35646 19.8369C2.42093 19.9013 2.50836 19.9376 2.59953 19.9376H2.97765L4.31828 32.6907C4.32683 32.7758 4.36679 32.8546 4.43035 32.9118C4.49391 32.969 4.57652 33.0005 4.66203 33.0001H21.162C21.2475 33.0005 21.3301 32.969 21.3937 32.9118C21.4573 32.8546 21.4972 32.7758 21.5058 32.6907L22.8464 19.9376H23.2245C23.3157 19.9376 23.4031 19.9013 23.4676 19.8369C23.5321 19.7724 23.5683 19.685 23.5683 19.5938V16.1563C23.5683 16.0651 23.5321 15.9777 23.4676 15.9132C23.4031 15.8488 23.3157 15.8126 23.2245 15.8126ZM19.5258 6.07756L22.2758 6.31819L22.1555 7.69319L19.4055 7.45256L19.5258 6.07756ZM19.7939 2.98381C19.813 2.80432 19.902 2.63954 20.0415 2.52506C20.1811 2.41058 20.3601 2.35558 20.5398 2.37194L21.9148 2.49225C22.0051 2.50161 22.0925 2.52931 22.1717 2.57364C22.251 2.61797 22.3203 2.678 22.3755 2.75006C22.4337 2.81647 22.478 2.8939 22.5057 2.97774C22.5335 3.06159 22.5441 3.15015 22.537 3.23819L22.3273 5.64444L19.5773 5.40381L19.7939 2.98381ZM19.347 8.11944L22.097 8.36006L21.4302 15.8126H18.6802L19.347 8.11944ZM12.5683 2.75006C12.5683 2.47656 12.6769 2.21425 12.8703 2.02086C13.0637 1.82746 13.326 1.71881 13.5995 1.71881C13.873 1.71881 14.1353 1.82746 14.3287 2.02086C14.5221 2.21425 14.6308 2.47656 14.6308 2.75006V4.12506H12.5683V2.75006ZM11.8808 4.81256H15.3183V12.3751H11.8808V4.81256ZM12.2245 13.0626H14.9745V15.8126H12.2245V13.0626ZM4.57953 14.6197L6.27078 14.3241C6.31525 14.3162 6.35774 14.2997 6.3958 14.2754C6.43387 14.2511 6.46677 14.2195 6.49263 14.1824C6.51849 14.1454 6.5368 14.1037 6.54651 14.0595C6.55622 14.0154 6.55714 13.9698 6.54922 13.9254C6.54133 13.8809 6.52477 13.8384 6.50046 13.8003C6.47615 13.7623 6.44457 13.7294 6.40754 13.7035C6.37051 13.6777 6.32875 13.6594 6.28464 13.6496C6.24053 13.6399 6.19493 13.639 6.15047 13.6469L4.45922 13.9426L4.22203 12.5882L5.25328 12.4094C5.33581 12.3898 5.40816 12.3403 5.45639 12.2705C5.50462 12.2006 5.52533 12.1155 5.51453 12.0313C5.50705 11.9865 5.49077 11.9437 5.46663 11.9052C5.44249 11.8668 5.41098 11.8335 5.3739 11.8073C5.33683 11.7811 5.29493 11.7625 5.25063 11.7525C5.20632 11.7426 5.16049 11.7416 5.11578 11.7494L4.10172 11.9282L3.86453 10.5738L5.55578 10.2782C5.60025 10.2703 5.64274 10.2537 5.6808 10.2294C5.71887 10.2051 5.75177 10.1735 5.77763 10.1365C5.80349 10.0995 5.8218 10.0577 5.83151 10.0136C5.84122 9.96949 5.84214 9.9239 5.83422 9.87944C5.82633 9.83496 5.80977 9.79248 5.78546 9.75441C5.76115 9.71634 5.72957 9.68344 5.69254 9.65758C5.65551 9.63173 5.61375 9.61342 5.56964 9.60371C5.52553 9.594 5.47993 9.59308 5.43547 9.601L3.74078 9.90006L3.50359 8.54569L4.53484 8.36694C4.57931 8.35905 4.6218 8.34248 4.65987 8.31818C4.69793 8.29387 4.73084 8.26229 4.75669 8.22526C4.78255 8.18823 4.80086 8.14646 4.81057 8.10235C4.82028 8.05824 4.8212 8.01265 4.81328 7.96819C4.8054 7.92371 4.78883 7.88123 4.76452 7.84316C4.74021 7.80509 4.70864 7.77219 4.67161 7.74633C4.63457 7.72048 4.59281 7.70217 4.5487 7.69246C4.50459 7.68275 4.459 7.68183 4.41453 7.68975L3.38328 7.8685L3.14609 6.51412L4.83734 6.18756C4.88248 6.17989 4.92567 6.1634 4.96444 6.13903C5.00321 6.11467 5.0368 6.0829 5.06329 6.04556C5.08979 6.00821 5.10867 5.96601 5.11885 5.92137C5.12904 5.87673 5.13033 5.83051 5.12265 5.78537C5.11498 5.74023 5.09849 5.69704 5.07413 5.65827C5.04976 5.6195 5.018 5.58591 4.98065 5.55942C4.9433 5.53293 4.9011 5.51405 4.85646 5.50386C4.81182 5.49368 4.76561 5.49239 4.72047 5.50006L3.02578 5.79912L2.78859 4.46881L3.80265 4.29006C3.8478 4.28239 3.89098 4.2659 3.92975 4.24153C3.96852 4.21717 4.00211 4.1854 4.02861 4.14806C4.0551 4.11071 4.07398 4.06851 4.08416 4.02387C4.09435 3.97923 4.09564 3.93301 4.08797 3.88787C4.08029 3.84273 4.0638 3.79954 4.03944 3.76077C4.01507 3.722 3.98331 3.68841 3.94596 3.66192C3.90862 3.63543 3.86642 3.61655 3.82177 3.60636C3.77713 3.59618 3.73092 3.59489 3.68578 3.60256L2.65453 3.78131L2.31078 1.74975L8.06515 0.742561L10.7223 15.8126H4.78922L4.57953 14.6197ZM20.8527 32.3126H4.9714L3.66859 19.9376H22.1555L20.8527 32.3126ZM22.8808 19.2501H2.94328V16.5001H22.8808V19.2501Z" fill="#39426A"/>
<path d="M2.25592 2L8.25592 1L10.7559 16H4.75592L2.25592 2Z" fill="#FFFAEA"/>
<path d="M9.1311 29.5625H16.6936C17.1494 29.5625 17.5866 29.3814 17.9089 29.0591C18.2313 28.7368 18.4124 28.2996 18.4124 27.8438V24.4062C18.4124 23.9504 18.2313 23.5132 17.9089 23.1909C17.5866 22.8686 17.1494 22.6875 16.6936 22.6875H9.1311C8.67526 22.6875 8.23809 22.8686 7.91576 23.1909C7.59344 23.5132 7.41235 23.9504 7.41235 24.4062V27.8438C7.41235 28.2996 7.59344 28.7368 7.91576 29.0591C8.23809 29.3814 8.67526 29.5625 9.1311 29.5625ZM8.09985 24.4062C8.09985 24.1327 8.2085 23.8704 8.4019 23.677C8.5953 23.4836 8.8576 23.375 9.1311 23.375H16.6936C16.9671 23.375 17.2294 23.4836 17.4228 23.677C17.6162 23.8704 17.7249 24.1327 17.7249 24.4062V27.8438C17.7249 28.1173 17.6162 28.3796 17.4228 28.573C17.2294 28.7664 16.9671 28.875 16.6936 28.875H9.1311C8.8576 28.875 8.5953 28.7664 8.4019 28.573C8.2085 28.3796 8.09985 28.1173 8.09985 27.8438V24.4062Z" fill="#39426A"/>
</g>
<defs>
<clipPath id="clip0_2818_18116">
<rect width="24" height="33" fill="white" transform="translate(0.91864)"/>
</clipPath>
</defs>
</svg>
