<svg width="36" height="23" viewBox="0 0 36 23" fill="none" xmlns="http://www.w3.org/2000/svg">
<g clip-path="url(#clip0_2818_18076)">
<path d="M17.0819 4.39835C17.1069 10.9243 17.0299 16.2928 17.0549 22.8188H33.812L33.6288 2.375L17.0819 4.39835Z" fill="url(#paint0_linear_2818_18076)" fill-opacity="0.2"/>
<path d="M33.8126 22.9987H17.0554C16.9555 22.9987 16.8743 22.9175 16.8743 22.8176C16.8618 19.5535 16.8743 16.531 16.8868 13.6063C16.8993 10.6837 16.9118 7.65908 16.8993 4.39715C16.8993 4.30556 16.968 4.22854 17.0575 4.21605L33.6044 2.1927C33.6565 2.18646 33.7064 2.20311 33.746 2.23641C33.7855 2.26972 33.8063 2.31968 33.8084 2.37172L33.9916 22.8155C33.9916 22.8633 33.9729 22.9112 33.9396 22.9445C33.9063 22.9778 33.8584 22.9987 33.8105 22.9987H33.8126ZM17.2365 22.6365H33.6294L33.4504 2.5778L17.2636 4.55744C17.2761 7.759 17.2636 10.7316 17.249 13.6084C17.2365 16.4769 17.224 19.4432 17.2344 22.6365H17.2365Z" fill="black"/>
<path d="M16.9116 4.39835C16.8866 10.9243 16.9636 16.2928 16.9386 22.8188H0.181458L0.364642 2.375L16.9116 4.39835Z" fill="url(#paint1_linear_2818_18076)" fill-opacity="0.2"/>
<path d="M16.9383 23.0005H0.181102C0.133225 23.0005 0.0874287 22.9817 0.0520409 22.9464C0.0187347 22.9131 0 22.8652 0 22.8173L0.183184 2.37563C0.183184 2.32359 0.206082 2.27571 0.245633 2.24032C0.285184 2.20701 0.335143 2.19036 0.387184 2.19661L16.9341 4.21996C17.0257 4.23037 17.0944 4.30947 17.0923 4.40106C17.0798 7.66298 17.0923 10.6855 17.1048 13.6102C17.1173 16.5349 17.1298 19.5575 17.1173 22.8215C17.1173 22.9214 17.0361 23.0026 16.9362 23.0026L16.9383 23.0005ZM0.364286 22.6383H16.7572C16.7697 19.445 16.7572 16.4787 16.7426 13.6102C16.7301 10.7334 16.7176 7.76082 16.728 4.55926L0.543307 2.58171L0.364286 22.6404V22.6383Z" fill="black"/>
<path d="M17.0968 3.24165C17.1176 9.76758 17.0343 16.2935 17.0551 22.8194L31.4975 20.6254L31.3393 0.181641L17.0947 3.24165H17.0968Z" fill="white"/>
<path d="M17.0576 22.9997C17.0139 22.9997 16.9723 22.9851 16.939 22.956C16.8994 22.9227 16.8765 22.8727 16.8765 22.8186C16.8661 19.5546 16.8807 16.2364 16.8974 13.0286C16.9119 9.82084 16.9286 6.50271 16.9182 3.24078C16.9182 3.15544 16.9785 3.0805 17.0618 3.06385L31.3044 0.00384034C31.3585 -0.00656784 31.4126 0.00384034 31.4563 0.0392282C31.498 0.0725343 31.5229 0.124575 31.525 0.178698L31.6832 20.6224C31.6832 20.712 31.6187 20.789 31.5292 20.8036L17.0868 22.9976C17.0868 22.9976 17.0681 22.9976 17.0597 22.9976L17.0576 22.9997ZM17.2804 3.3865C17.2908 6.60263 17.2741 9.86871 17.2596 13.0307C17.245 16.1698 17.2283 19.413 17.2387 22.6083L31.3189 20.4684L31.1649 0.403515L17.2825 3.3865H17.2804Z" fill="black"/>
<path d="M17.1436 3.26497L31.3477 0.326172V20.5712L17.1436 22.6937V3.26497Z" fill="url(#paint2_linear_2818_18076)"/>
<path d="M17.0573 3.24165C17.0364 9.76758 17.0135 16.2935 16.9927 22.8194L2.65649 20.6254L2.81262 0.181641L17.0573 3.24165Z" fill="white"/>
<path d="M16.9805 3.26497L2.77628 0.326172V20.5712L16.9805 22.6937V3.26497Z" fill="url(#paint3_linear_2818_18076)"/>
<path d="M16.99 23.0003C16.99 23.0003 16.9713 23.0003 16.9629 22.9982L2.6267 20.8041C2.53719 20.7896 2.47266 20.7146 2.47266 20.623L2.63086 0.179289C2.63086 0.125167 2.65584 0.0731256 2.69955 0.0398194C2.74119 0.00651324 2.79739 -0.00805822 2.85151 0.0044316L17.0962 3.06444C17.1794 3.08317 17.2398 3.15603 17.2398 3.24138L17.1753 22.8192C17.1753 22.8712 17.1524 22.9212 17.1128 22.9566C17.0795 22.9857 17.0379 23.0003 16.9942 23.0003H16.99ZM2.83694 20.469L16.811 22.6089L16.8755 3.38917L2.99098 0.406187L2.83694 20.4711V20.469Z" fill="black"/>
<path d="M6.20117 12.1778C8.14126 12.3589 12.5522 13.0687 14.0739 13.2124C14.0739 10.8539 13.9573 8.48289 14.0011 6.10774C12.3795 5.82672 8.38273 5.26884 6.25321 4.90039C6.25321 7.27554 6.20325 9.81513 6.20325 12.1778H6.20117Z" fill="white"/>
<path d="M14.0744 13.3923C14.0744 13.3923 14.064 13.3923 14.0577 13.3923C13.3375 13.3257 11.9823 13.1321 10.546 12.9281C8.90566 12.695 7.20912 12.4535 6.18496 12.3577C6.09128 12.3494 6.02051 12.2703 6.02051 12.1766C6.02051 10.9964 6.033 9.74945 6.04549 8.54418C6.05798 7.33475 6.07047 6.08577 6.07047 4.89716C6.07047 4.84303 6.09336 4.79307 6.135 4.75769C6.17663 4.7223 6.22867 4.70773 6.28279 4.71813C7.41937 4.91381 9.05762 5.16152 10.6438 5.39883C11.9969 5.60283 13.2729 5.79434 14.0306 5.92548C14.1181 5.94006 14.1826 6.01708 14.1805 6.10659C14.1555 7.4763 14.1847 8.86684 14.2117 10.2116C14.2326 11.1941 14.2534 12.2099 14.2534 13.2091C14.2534 13.2591 14.2326 13.309 14.1951 13.3424C14.1618 13.3736 14.1181 13.3902 14.0723 13.3902L14.0744 13.3923ZM6.38271 12.0122C7.42561 12.1163 9.0368 12.3453 10.598 12.568C11.9053 12.7533 13.148 12.9302 13.8933 13.0093C13.8912 12.0809 13.8704 11.1358 13.8516 10.2199C13.8246 8.92304 13.7975 7.58247 13.8162 6.25646C13.0502 6.1274 11.8533 5.94838 10.5897 5.75687C9.09717 5.53205 7.55676 5.30099 6.43267 5.11156C6.43267 6.23565 6.4181 7.40969 6.40769 8.54626C6.3952 9.69533 6.38271 10.8798 6.38271 12.0101V12.0122Z" fill="black"/>
<path d="M6.83223 7.28345C6.81974 7.28345 6.80933 7.27928 6.79892 7.27304C6.77186 7.2543 6.76354 7.21683 6.78435 7.18977C7.15697 6.64855 7.57537 6.13855 8.02917 5.67226C8.05207 5.64936 8.09162 5.64728 8.11452 5.67226C8.13742 5.69516 8.1395 5.73471 8.11452 5.75761C7.66697 6.21765 7.25272 6.72349 6.88427 7.25847C6.87178 7.27512 6.85305 7.28553 6.83431 7.28553L6.83223 7.28345Z" fill="black"/>
<path d="M6.83245 8.68735C6.81787 8.68735 6.80538 8.68319 6.79289 8.67278C6.76791 8.65196 6.76375 8.61241 6.78665 8.58743C7.55685 7.67359 8.31873 6.72853 9.05355 5.78139C9.07437 5.75432 9.11184 5.75016 9.1389 5.77098C9.16596 5.79179 9.17012 5.82926 9.14931 5.85632C8.41449 6.80347 7.64845 7.74853 6.87824 8.66445C6.86575 8.67902 6.8491 8.68527 6.83245 8.68527V8.68735Z" fill="black"/>
<path d="M6.63334 10.3393C6.62085 10.3393 6.60628 10.3352 6.59587 10.3248C6.57089 10.3039 6.56673 10.2665 6.58755 10.2394L10.093 5.98455C10.1138 5.95957 10.1513 5.9554 10.1784 5.97622C10.2033 5.99704 10.2075 6.0345 10.1867 6.06157L6.68122 10.3185C6.66873 10.3331 6.65208 10.3414 6.63542 10.3414L6.63334 10.3393Z" fill="black"/>
<path d="M6.69671 11.6699C6.68214 11.6699 6.66756 11.6658 6.65716 11.6553C6.63218 11.6325 6.6301 11.595 6.65091 11.57C8.16842 9.83808 9.66304 8.04163 11.091 6.2306C11.1119 6.20354 11.1493 6.19938 11.1764 6.2202C11.2035 6.24101 11.2076 6.27848 11.1868 6.30554C9.7588 8.11865 8.2621 9.91718 6.7425 11.6512C6.73001 11.6658 6.71336 11.672 6.69671 11.672V11.6699Z" fill="black"/>
<path d="M7.94178 11.8595C7.92929 11.8595 7.9168 11.8553 7.90431 11.847C7.87725 11.8262 7.87309 11.7887 7.8939 11.7617C9.29276 9.94649 10.7437 8.13963 12.2112 6.38689C12.232 6.36191 12.2716 6.35775 12.2966 6.37856C12.3215 6.39938 12.3257 6.43893 12.3049 6.46391C10.8394 8.21457 9.38644 10.0214 7.98966 11.8345C7.97717 11.8491 7.96052 11.8574 7.94178 11.8574V11.8595Z" fill="black"/>
<path d="M9.10087 11.8606C9.08838 11.8606 9.07381 11.8564 9.0634 11.846C9.03842 11.8252 9.03426 11.7877 9.05508 11.7606L13.3141 6.56072C13.3349 6.53574 13.3724 6.53157 13.3995 6.55239C13.4244 6.57321 13.4286 6.61068 13.4078 6.63774L9.14875 11.8377C9.13626 11.8522 9.11961 11.8606 9.10295 11.8606H9.10087Z" fill="black"/>
<path d="M10.3108 12.1079C10.2963 12.1079 10.2838 12.1037 10.2713 12.0933C10.2463 12.0725 10.2421 12.0329 10.265 12.0079C11.2975 10.7943 12.3238 9.54536 13.3126 8.29638C13.3334 8.2714 13.3708 8.26515 13.3979 8.28597C13.425 8.30678 13.4291 8.34425 13.4083 8.37132C12.4175 9.62238 11.3912 10.8714 10.3587 12.085C10.3462 12.0995 10.3296 12.1058 10.3129 12.1058L10.3108 12.1079Z" fill="black"/>
<path d="M11.5262 12.3611C11.5137 12.3611 11.5012 12.3569 11.4908 12.3486C11.4638 12.3298 11.4575 12.2903 11.4783 12.2653C12.0237 11.5138 12.6045 10.7728 13.2019 10.0588C13.2227 10.0338 13.2623 10.0296 13.2873 10.0504C13.3123 10.0713 13.3164 10.1108 13.2956 10.1358C12.7003 10.8477 12.1216 11.5867 11.5783 12.3361C11.5658 12.3527 11.5491 12.3611 11.5304 12.3611H11.5262Z" fill="black"/>
<path d="M34.2596 12.5149L27.1592 9.39453L29.3865 16.8239L30.7583 15.6103L33.6081 19.0159L35.7376 17.1341L32.8878 13.7264L34.2596 12.5149Z" fill="#ED4136"/>
<path d="M33.6081 19.1977C33.6081 19.1977 33.5998 19.1977 33.5936 19.1977C33.5457 19.1935 33.4999 19.1706 33.4687 19.1331L30.7376 15.8691L29.5052 16.9578C29.4594 16.9994 29.3949 17.014 29.3366 16.9953C29.2763 16.9786 29.2305 16.9328 29.2138 16.8725L26.9865 9.44311C26.9656 9.37441 26.9865 9.30155 27.0406 9.25576C27.0926 9.20996 27.1676 9.19747 27.2342 9.22661L34.3346 12.347C34.3908 12.372 34.4304 12.424 34.4408 12.4844C34.4512 12.5447 34.4283 12.6072 34.3825 12.6488L33.1419 13.7458L35.8792 17.0161C35.9417 17.091 35.9333 17.2034 35.8605 17.268L33.731 19.1519C33.6977 19.181 33.656 19.1977 33.6102 19.1977H33.6081ZM30.7584 15.4299C30.7584 15.4299 30.7667 15.4299 30.773 15.4299C30.8208 15.4341 30.8666 15.457 30.8979 15.4944L33.629 18.7584L35.4879 17.116L32.7505 13.8458C32.6881 13.7708 32.6964 13.6584 32.7692 13.5939L33.9287 12.5676L27.4465 9.71996L29.4803 16.5019L30.6397 15.4757C30.673 15.4465 30.7147 15.4299 30.7605 15.4299H30.7584Z" fill="black"/>
<path d="M12.6237 12.5563C12.6091 12.5563 12.5966 12.5521 12.5842 12.5417C12.5592 12.5209 12.555 12.4813 12.5758 12.4563C12.7861 12.2065 12.988 11.9443 13.1753 11.6757C13.1941 11.6487 13.2315 11.6424 13.2586 11.6612C13.2857 11.6799 13.2919 11.7174 13.2732 11.7444C13.0837 12.015 12.8797 12.2815 12.6653 12.5334C12.6528 12.5479 12.6362 12.5542 12.6195 12.5542L12.6237 12.5563Z" fill="black"/>
<path d="M6.72161 6.08551C6.70703 6.08551 6.69454 6.08135 6.68205 6.07094C6.65708 6.05012 6.65291 6.01265 6.67373 5.98559C6.80487 5.82739 6.9485 5.67543 7.10046 5.53179C7.12544 5.5089 7.16291 5.51098 7.18581 5.53387C7.20871 5.55885 7.20663 5.59632 7.18373 5.61922C7.03593 5.75869 6.89646 5.90649 6.7674 6.06261C6.75491 6.07718 6.73826 6.08343 6.72161 6.08343V6.08551Z" fill="black"/>
<path d="M20.7773 6.40688C20.6982 6.40688 20.6253 6.35276 20.6024 6.27365C20.5754 6.1779 20.6337 6.07798 20.7294 6.05092C23.2898 5.3619 25.9106 4.76863 28.5189 4.28777C28.6167 4.27112 28.7125 4.33565 28.7291 4.43349C28.7479 4.53132 28.6813 4.62708 28.5834 4.64373C25.9855 5.12043 23.3752 5.71161 20.8231 6.39855C20.8064 6.40271 20.7919 6.4048 20.7752 6.4048L20.7773 6.40688Z" fill="black"/>
<path d="M20.7773 9.44203C20.6982 9.44203 20.6253 9.38791 20.6024 9.30881C20.5754 9.21305 20.6337 9.11314 20.7294 9.08607C23.2898 8.39705 25.9106 7.80379 28.5189 7.32293C28.6167 7.30628 28.7125 7.37081 28.7291 7.46864C28.7479 7.56648 28.6813 7.66224 28.5834 7.67889C25.9855 8.15558 23.3752 8.74677 20.8231 9.43371C20.8064 9.43787 20.7919 9.43995 20.7752 9.43995L20.7773 9.44203Z" fill="black"/>
<path d="M14.0061 16.1983C14.0061 16.1983 13.9936 16.1983 13.9874 16.1983C11.3687 15.9194 8.73747 15.5738 6.16665 15.172C6.06673 15.1575 6.00012 15.0638 6.01469 14.966C6.02926 14.8681 6.12294 14.8015 6.22077 14.814C8.78535 15.2158 11.4103 15.5592 14.0227 15.8382C14.1227 15.8486 14.1934 15.9381 14.183 16.038C14.1726 16.1317 14.0935 16.2004 14.004 16.2004L14.0061 16.1983Z" fill="black"/>
<path d="M20.7773 12.8578C20.6982 12.8578 20.6254 12.8036 20.6025 12.7245C20.5754 12.6288 20.6337 12.5289 20.7294 12.5018C22.4406 12.0397 24.1912 11.6421 25.9356 11.3215C26.0335 11.3028 26.1292 11.3694 26.1459 11.4672C26.1646 11.5651 26.098 11.6608 26.0001 11.6775C24.2661 11.9981 22.5238 12.3915 20.8231 12.8515C20.8065 12.8557 20.7919 12.8578 20.7752 12.8578H20.7773Z" fill="black"/>
<path d="M20.7772 16.2732C20.696 16.2732 20.6211 16.2191 20.6023 16.1358C20.5773 16.0379 20.6377 15.9401 20.7355 15.9172C22.6049 15.4551 24.5179 15.0575 26.4226 14.7369C26.5204 14.7203 26.6141 14.7869 26.6307 14.8847C26.6474 14.9826 26.5808 15.0762 26.4829 15.0929C24.5866 15.4135 22.6819 15.8069 20.8209 16.2669C20.8063 16.2711 20.7918 16.2732 20.7772 16.2732Z" fill="black"/>
<g opacity="0.13">
<path d="M18.077 14.8962C18.0541 13.4641 17.9209 12.0361 17.8668 10.606C17.8543 9.39447 17.9084 8.18504 17.9209 6.97353C17.9313 6.51557 17.9938 6.05761 17.9667 5.59756C17.9542 5.07507 17.9396 4.55466 17.948 4.03217C17.9396 3.7116 18.0167 3.18287 17.5878 3.12458C17.2485 3.08503 17.0903 3.38895 17.1715 3.68454C17.1902 4.00928 17.1569 4.33609 17.159 4.66291C17.1611 6.49059 17.082 8.31826 17.1195 10.1459C17.1111 10.7788 17.1715 11.4095 17.209 12.0402C17.234 13.1872 17.261 14.3342 17.2652 15.4812C17.2569 17.669 17.1236 19.8568 17.1819 22.0446C17.2006 22.2569 17.1299 22.5109 17.2964 22.6774C17.5191 22.9126 17.9542 22.7378 17.9438 22.4089C17.9375 21.1495 17.9584 19.8901 17.975 18.6307C18.0312 17.3859 18.1082 16.1411 18.077 14.8942V14.8962Z" fill="black"/>
</g>
<g opacity="0.13">
<path d="M16.9699 4.06923C16.9928 3.63 17.099 3.4718 16.897 3.222C16.7263 3.04506 16.412 3.0867 16.2892 3.30111C16.2205 3.40519 16.2434 3.53009 16.2288 3.64666C16.1976 3.92768 16.1747 4.21078 16.1747 4.49388C16.1456 5.79282 16.2476 7.0876 16.2621 8.38446C16.1955 10.7888 16.2184 13.193 16.1955 15.5973C16.1893 16.7797 16.131 17.9621 16.1164 19.1444C16.1206 19.7044 16.1164 20.2664 16.1164 20.8264C16.1372 21.2552 16.1643 21.684 16.1456 22.1129C16.1518 22.3169 16.0685 22.5562 16.2351 22.7165C16.4495 22.9434 16.8658 22.7748 16.8554 22.4584C16.8991 21.913 16.8825 21.3676 16.8554 20.8222C16.8637 20.1374 16.8637 19.4504 16.8658 18.7656C16.9574 16.6132 16.8721 14.4608 16.8762 12.3083C16.9324 11.3071 16.9179 10.3058 16.9532 9.30455C17.0552 8.19711 16.9907 7.0876 16.9283 5.98017C16.947 5.34319 16.9449 4.70621 16.9678 4.07131L16.9699 4.06923Z" fill="black"/>
</g>
<g opacity="0.13">
<path d="M30.9746 20.7642C30.9746 20.7642 30.9621 20.7725 30.9517 20.7788C30.9538 20.7746 30.958 20.7725 30.96 20.7683C30.9538 20.7746 30.9476 20.7788 30.9413 20.785C30.9288 20.7933 30.9163 20.7975 30.9038 20.8037C30.8726 20.8141 30.8414 20.8225 30.8081 20.8308C30.8039 20.8308 30.7998 20.8308 30.7956 20.8329C30.7456 20.8391 30.6582 20.8495 30.6103 20.8579C30.296 20.9057 30.1399 20.9307 30.0525 20.9411C29.2323 21.0848 27.3255 21.2221 25.8933 21.4761C25.1335 21.6072 24.2551 21.6968 23.5598 21.7904C22.8895 21.8862 22.2255 22.0257 21.5531 22.1214C21.5032 22.1297 20.8953 22.2047 20.5498 22.2297C20.3354 22.2484 20.1064 22.2026 19.9024 22.2713C19.5652 22.3962 19.6713 22.9291 20.0335 22.9208C20.6351 22.9124 21.2326 22.8458 21.8279 22.7563C21.8758 22.748 21.9882 22.7313 22.0173 22.7272C22.9936 22.6023 23.7409 22.5377 24.8567 22.417C25.2147 22.3858 26.3888 22.188 26.6677 22.1547C27.694 22.0319 28.7639 21.9132 29.5071 21.7863C29.6382 21.7342 30.6249 21.7488 31.0995 21.626C32.1965 21.2804 31.4867 20.2812 30.9746 20.7642Z" fill="black"/>
</g>
<g opacity="0.13">
<path d="M14.6714 22.3429C14.6048 22.2847 14.5278 22.2451 14.4404 22.2389C14.38 22.2305 14.2614 22.2118 14.2135 22.2076C13.7742 22.1452 13.3309 22.1681 12.8896 22.1618C11.9091 22.0515 11.3804 21.9433 10.1501 21.7996C9.80665 21.7767 9.03436 21.5707 8.38281 21.4832C8.63677 21.5165 8.22877 21.4582 8.12885 21.4478C8.04975 21.4395 7.76248 21.4145 7.73959 21.4145C7.21293 21.3417 6.61342 21.2522 6.41983 21.2272C5.7537 21.1377 4.08839 20.8587 3.05798 20.6006C2.52509 20.3945 2.22741 21.1793 2.77905 21.3625C3.75117 21.5436 4.71705 21.7622 5.69542 21.9183C6.87362 22.1223 7.36697 22.1473 8.75959 22.4012C10.1834 22.6323 10.7142 22.7426 12.3109 22.8821C12.5752 22.9029 12.8417 22.9133 13.104 22.8675C13.0727 22.8717 13.0415 22.8758 13.0103 22.88C13.0353 22.88 13.0644 22.8821 13.0873 22.8863C13.1373 22.8946 13.1872 22.9029 13.2372 22.9112C13.3704 22.9383 13.9533 22.9862 13.7076 22.957C13.8867 22.9883 14.0678 22.9716 14.2489 22.9695C14.3509 22.9654 14.4591 22.9883 14.5528 22.9383C14.7901 22.8571 14.8525 22.5136 14.6714 22.3429Z" fill="black"/>
</g>
<g opacity="0.13">
<path d="M33.7284 19.3411C33.7076 19.2599 33.6555 19.1975 33.5993 19.1392C33.3475 18.8478 33.437 18.9435 33.2226 18.6729C32.8021 18.2087 32.7292 18.0755 32.3212 17.5738C31.8674 17.0222 31.3845 16.456 31.1159 16.1312C31.1118 15.819 30.7079 15.5879 30.4373 15.8564C30.2874 16.0688 29.9377 16.3644 29.7816 16.483C29.638 16.6246 29.4381 16.7349 29.3465 16.916C29.1842 17.2616 29.6588 17.5759 29.9211 17.3032C30.1938 17.0555 30.3457 16.9431 30.6018 16.7328C30.9223 17.1262 31.1034 17.3407 31.4969 17.8194C31.499 17.8236 31.501 17.8257 31.5052 17.8298C31.7383 18.1775 32.0339 18.471 32.315 18.777C32.6147 19.135 32.6106 19.1246 32.8375 19.4285C32.9561 19.5534 33.0498 19.7283 33.2121 19.7949C33.4911 19.9344 33.82 19.6367 33.7305 19.3432L33.7284 19.3411Z" fill="black"/>
</g>
</g>
<defs>
<linearGradient id="paint0_linear_2818_18076" x1="23.3471" y1="8.48972" x2="29.8778" y2="22.8572" gradientUnits="userSpaceOnUse">
<stop stop-color="#283342"/>
<stop offset="1" stop-color="#B8B3A0" stop-opacity="0"/>
</linearGradient>
<linearGradient id="paint1_linear_2818_18076" x1="8.49021" y1="10.4489" x2="0.326888" y2="22.8572" gradientUnits="userSpaceOnUse">
<stop stop-color="#273240"/>
<stop offset="1" stop-color="#B8B3A0" stop-opacity="0"/>
</linearGradient>
<linearGradient id="paint2_linear_2818_18076" x1="29.5518" y1="1.6323" x2="17.9599" y2="22.5304" gradientUnits="userSpaceOnUse">
<stop stop-color="#FFDB50"/>
<stop offset="1" stop-color="#FFDB50" stop-opacity="0"/>
</linearGradient>
<linearGradient id="paint3_linear_2818_18076" x1="2.61302" y1="0.326171" x2="18.2866" y2="26.7753" gradientUnits="userSpaceOnUse">
<stop stop-color="#FFDB50"/>
<stop offset="1" stop-color="#9ED7C5"/>
</linearGradient>
<clipPath id="clip0_2818_18076">
<rect width="35.9186" height="23" fill="white"/>
</clipPath>
</defs>
</svg>
