<svg width="27" height="27" viewBox="0 0 27 27" fill="none" xmlns="http://www.w3.org/2000/svg">
<path d="M13.5 0C20.9439 0 27 6.0561 27 13.5C27 20.9439 20.9439 27 13.5 27C6.0561 27 0 20.9439 0 13.5C0 6.0561 6.0561 0 13.5 0ZM13.5 1.8C7.0479 1.8 1.8 7.0488 1.8 13.5C1.8 16.1145 2.6721 18.5229 4.1274 20.4732C5.2569 18.4896 7.3737 17.1882 9.7335 17.1882H17.2656C19.6245 17.1891 21.7422 18.4914 22.8717 20.4732C24.327 18.5238 25.2 16.1145 25.2 13.5C25.2 7.0488 19.9512 1.8 13.5 1.8ZM21.5892 21.9321C20.8908 20.1798 19.1871 18.9882 17.2647 18.9882H9.7335C7.8102 18.9882 6.1083 20.1798 5.409 21.9321C7.5132 23.9499 10.3608 25.2 13.5 25.2C16.6383 25.2 19.485 23.9499 21.5892 21.9321Z" fill="#79B5F1"/>
<path d="M13.4992 16.137C10.7965 16.137 8.59866 13.7637 8.59866 10.8468C8.59866 7.92994 10.7965 5.55664 13.4992 5.55664C16.201 5.55664 18.3997 7.92994 18.3997 10.8468C18.3997 13.7637 16.201 16.137 13.4992 16.137ZM13.4992 7.35664C11.7892 7.35664 10.3987 8.92174 10.3987 10.8468C10.3987 12.7719 11.7892 14.337 13.4992 14.337C15.2083 14.337 16.5997 12.7719 16.5997 10.8468C16.5997 8.92174 15.2083 7.35664 13.4992 7.35664Z" fill="#79B5F1"/>
</svg>
