<svg width="36" height="36" viewBox="0 0 36 36" fill="none" xmlns="http://www.w3.org/2000/svg">
<path d="M29.875 24.25H24.875C24.5298 24.25 24.25 24.5298 24.25 24.875V29.875C24.25 30.2202 24.5298 30.5 24.875 30.5H29.875C30.2202 30.5 30.5 30.2202 30.5 29.875V24.875C30.5 24.5298 30.2202 24.25 29.875 24.25Z" fill="white"/>
<path d="M23.625 19.25H19.875C19.5298 19.25 19.25 19.5298 19.25 19.875V23.625C19.25 23.9702 19.5298 24.25 19.875 24.25H23.625C23.9702 24.25 24.25 23.9702 24.25 23.625V19.875C24.25 19.5298 23.9702 19.25 23.625 19.25Z" fill="white"/>
<path d="M34.875 30.5H31.125C30.7798 30.5 30.5 30.7798 30.5 31.125V34.875C30.5 35.2202 30.7798 35.5 31.125 35.5H34.875C35.2202 35.5 35.5 35.2202 35.5 34.875V31.125C35.5 30.7798 35.2202 30.5 34.875 30.5Z" fill="white"/>
<path d="M34.875 19.25H32.375C32.0298 19.25 31.75 19.5298 31.75 19.875V22.375C31.75 22.7202 32.0298 23 32.375 23H34.875C35.2202 23 35.5 22.7202 35.5 22.375V19.875C35.5 19.5298 35.2202 19.25 34.875 19.25Z" fill="white"/>
<path d="M22.375 31.75H19.875C19.5298 31.75 19.25 32.0298 19.25 32.375V34.875C19.25 35.2202 19.5298 35.5 19.875 35.5H22.375C22.7202 35.5 23 35.2202 23 34.875V32.375C23 32.0298 22.7202 31.75 22.375 31.75Z" fill="white"/>
<path d="M29.875 5.5H24.875C24.5298 5.5 24.25 5.77982 24.25 6.125V11.125C24.25 11.4702 24.5298 11.75 24.875 11.75H29.875C30.2202 11.75 30.5 11.4702 30.5 11.125V6.125C30.5 5.77982 30.2202 5.5 29.875 5.5Z" fill="white"/>
<path d="M33 1.75H21.75C21.0596 1.75 20.5 2.30964 20.5 3V14.25C20.5 14.9404 21.0596 15.5 21.75 15.5H33C33.6904 15.5 34.25 14.9404 34.25 14.25V3C34.25 2.30964 33.6904 1.75 33 1.75Z" stroke="white" stroke-width="2.5" stroke-linecap="round" stroke-linejoin="round"/>
<path d="M11.125 5.5H6.125C5.77982 5.5 5.5 5.77982 5.5 6.125V11.125C5.5 11.4702 5.77982 11.75 6.125 11.75H11.125C11.4702 11.75 11.75 11.4702 11.75 11.125V6.125C11.75 5.77982 11.4702 5.5 11.125 5.5Z" fill="white"/>
<path d="M14.25 1.75H3C2.30964 1.75 1.75 2.30964 1.75 3V14.25C1.75 14.9404 2.30964 15.5 3 15.5H14.25C14.9404 15.5 15.5 14.9404 15.5 14.25V3C15.5 2.30964 14.9404 1.75 14.25 1.75Z" stroke="white" stroke-width="2.5" stroke-linecap="round" stroke-linejoin="round"/>
<path d="M11.125 24.25H6.125C5.77982 24.25 5.5 24.5298 5.5 24.875V29.875C5.5 30.2202 5.77982 30.5 6.125 30.5H11.125C11.4702 30.5 11.75 30.2202 11.75 29.875V24.875C11.75 24.5298 11.4702 24.25 11.125 24.25Z" fill="white"/>
<path d="M14.25 20.5H3C2.30964 20.5 1.75 21.0596 1.75 21.75V33C1.75 33.6904 2.30964 34.25 3 34.25H14.25C14.9404 34.25 15.5 33.6904 15.5 33V21.75C15.5 21.0596 14.9404 20.5 14.25 20.5Z" stroke="white" stroke-width="2.5" stroke-linecap="round" stroke-linejoin="round"/>
</svg>
