<svg width="28" height="43" viewBox="0 0 28 43" fill="none" xmlns="http://www.w3.org/2000/svg">
<path d="M27.9365 14.2698V10.381C27.9346 9.75006 27.6832 9.14555 27.2371 8.69945C26.791 8.25334 26.1865 8.00188 25.5556 8H2.38097C1.75008 8.00188 1.14557 8.25334 0.699465 8.69945C0.253359 9.14555 0.00190163 9.75006 1.71661e-05 10.381V40.619C0.00190163 41.2499 0.253359 41.8544 0.699465 42.3006C1.14557 42.7467 1.75008 42.9981 2.38097 43H25.5556C26.1865 42.9981 26.791 42.7467 27.2371 42.3006C27.6832 41.8544 27.9346 41.2499 27.9365 40.619V34.5873" fill="white"/>
<path d="M22.8516 24.5312C22.0509 24.3514 21.814 24.2714 21.375 23.2188C20.9648 22.2344 21.0659 21.9732 21.5043 21.2795C22.007 20.4868 21.7143 19.8653 21.3881 19.5392L20.4602 18.6112C20.134 18.2844 19.5132 17.993 18.7205 18.4951C18.0268 18.9341 17.7965 19.0352 16.7812 18.625C15.7975 18.228 15.6486 17.9491 15.4688 17.1484C15.2627 16.2323 14.6176 16 14.1562 16H12.8438C12.3824 16 11.7367 16.2323 11.5312 17.1484C11.3514 17.9491 11.2025 18.228 10.2188 18.625C9.20353 19.0352 8.97319 18.9341 8.27953 18.4957C7.48678 17.9937 6.86597 18.2851 6.53981 18.6112L5.61122 19.5398C5.28506 19.866 4.99303 20.4868 5.49572 21.2795C5.93409 21.9732 6.03516 22.2344 5.625 23.2188C5.18597 24.2714 4.94906 24.3514 4.14844 24.5312C3.23231 24.7367 3 25.3824 3 25.8438V27.1562C3 27.6176 3.23231 28.2633 4.14844 28.4688C4.94906 28.6486 5.18597 28.7286 5.625 29.7812C6.03516 30.7656 5.93409 31.0268 5.49572 31.7205C4.99303 32.5132 5.28572 33.1347 5.61188 33.4608L6.53981 34.3888C6.86597 34.7156 7.48678 35.007 8.27953 34.5049C8.97319 34.0659 9.20353 33.9648 10.2188 34.375C11.2025 34.7727 11.3514 35.0509 11.5312 35.8516C11.7367 36.7677 12.3824 37 12.8438 37H14.1562C14.6176 37 15.2627 36.7677 15.4688 35.8516C15.6486 35.0509 15.7975 34.7727 16.7812 34.375C17.7965 33.9648 18.0268 34.0659 18.7205 34.5043C19.5132 35.0063 20.134 34.7149 20.4602 34.3881L21.3881 33.4602C21.7143 33.134 22.0063 32.5132 21.5043 31.7198C21.0659 31.0268 20.9648 30.7656 21.375 29.7812C21.814 28.7286 22.0509 28.6486 22.8516 28.4688C23.7677 28.2633 24 27.6176 24 27.1562V25.8438C24 25.3824 23.7677 24.7367 22.8516 24.5312ZM13.5 29.7812C11.6881 29.7812 10.2188 28.3119 10.2188 26.5C10.2188 24.6881 11.6881 23.2188 13.5 23.2188C15.3119 23.2188 16.7812 24.6881 16.7812 26.5C16.7812 28.3119 15.3119 29.7812 13.5 29.7812Z" fill="#002536"/>
<path d="M21 4.38995H21.0001C21.1971 4.3899 21.3922 4.42866 21.5742 4.50401C21.7562 4.57937 21.9215 4.68985 22.0608 4.82913C22.2001 4.96842 22.3106 5.13379 22.3859 5.31579C22.4613 5.49778 22.5001 5.69285 22.5 5.88983V5.88996V9.99999V10.0001C22.5001 10.1971 22.4613 10.3922 22.3859 10.5742C22.3106 10.7562 22.2001 10.9215 22.0608 11.0608C21.9215 11.2001 21.7562 11.3106 21.5742 11.3859C21.3922 11.4613 21.1971 11.5001 21.0001 11.5H21H7H6.99986C6.80288 11.5001 6.60782 11.4613 6.42583 11.3859C6.24383 11.3106 6.07847 11.2001 5.93918 11.0608L5.58705 11.4129L5.93918 11.0608C5.7999 10.9215 5.68942 10.7562 5.61406 10.5742L5.15479 10.7643L5.61406 10.5742C5.53871 10.3922 5.49995 10.1971 5.5 10.0001V9.99999L5.5 5.88996L5.5 5.88983C5.49995 5.69285 5.53871 5.49778 5.61406 5.31579C5.68942 5.13379 5.7999 4.96842 5.93918 4.82913C6.07847 4.68985 6.24383 4.57937 6.42583 4.50401L6.23455 4.04205L6.42583 4.50401C6.60782 4.42866 6.80288 4.3899 6.99986 4.38995H7H9.365H9.78463L9.85742 3.97669C10.029 3.00262 10.5383 2.12017 11.2959 1.48435C12.0535 0.848523 13.0109 0.5 14 0.5C14.9891 0.5 15.9465 0.848523 16.7041 1.48435C17.4617 2.12017 17.971 3.00262 18.1426 3.97669L18.2154 4.38995H18.635H21Z" fill="white" stroke="#002536"/>
</svg>
