<svg width="33" height="33" viewBox="0 0 33 33" fill="none" xmlns="http://www.w3.org/2000/svg">
<g clip-path="url(#clip0_2628_9108)">
<path d="M25.8811 6.00512L25.7023 8.06074L25.0802 15.1248L24.9908 16.1561H21.543L22.2786 7.76168L22.4573 5.70605L23.3923 5.78855L25.8811 6.00512Z" fill="#FFFAEA"/>
<path d="M25.8815 6.0037L22.457 5.7041L22.2773 7.75875L25.7017 8.05835L25.8815 6.0037Z" fill="#8289A2"/>
<path d="M26.1254 3.26529L25.9535 5.23497L25.8848 6.00497L22.4473 5.70591L22.6879 2.95591C22.7141 2.68899 22.8432 2.44277 23.048 2.26949C23.2527 2.09622 23.5169 2.00952 23.7845 2.02779C23.7947 2.02606 23.8051 2.02606 23.8154 2.02779L25.1904 2.1481C25.4624 2.17255 25.7136 2.3039 25.8889 2.51335C26.0642 2.72279 26.1492 2.99322 26.1254 3.26529Z" fill="#D6D8DB"/>
<path d="M18.9062 4.46875H14.7812V12.7188H18.9062V4.46875Z" fill="#ED4136"/>
<path d="M18.2188 2.75V4.46875H15.4688V2.75C15.4688 2.38533 15.6136 2.03559 15.8715 1.77773C16.1293 1.51987 16.4791 1.375 16.8438 1.375C17.2084 1.375 17.5582 1.51987 17.816 1.77773C18.0739 2.03559 18.2188 2.38533 18.2188 2.75Z" fill="#FFFAEA"/>
<path d="M18.5625 12.7188H15.125V16.1562H18.5625V12.7188Z" fill="#FFFAEA"/>
<path d="M14.3756 16.1562H7.74469L7.425 14.3413L6.71 10.2781H6.70656L6.34906 8.25L5.99156 6.21844L5.63406 4.18688L5.15625 1.47813L6.33188 1.27188L11.5878 0.34375L14.1934 15.125L14.3756 16.1562Z" fill="#FFFAEA"/>
<path d="M26.4688 16.1562H5.84375V19.5938H26.4688V16.1562Z" fill="#B8D8A4"/>
<path d="M25.7812 19.5938L24.5163 31.625L24.4062 32.6562H7.90625L6.53125 19.5938H25.7812Z" fill="#FFE271"/>
<path d="M21.3125 24.4063V27.8438C21.3139 27.9938 21.2883 28.1429 21.2369 28.2838C21.145 28.5558 20.9703 28.7922 20.7373 28.9599C20.5043 29.1276 20.2246 29.2181 19.9375 29.2188H12.375C12.0103 29.2188 11.6606 29.0739 11.4027 28.8161C11.1449 28.5582 11 28.2085 11 27.8438V24.4063C11.0007 24.1192 11.0912 23.8396 11.2589 23.6065C11.4266 23.3735 11.663 23.1988 11.935 23.1069C12.0759 23.0555 12.225 23.0299 12.375 23.0313H19.9375C20.3022 23.0313 20.6519 23.1762 20.9098 23.434C21.1676 23.6919 21.3125 24.0416 21.3125 24.4063Z" fill="white"/>
<path d="M26.4691 15.8116H25.3657L26.0532 8.0944L26.2353 6.0319L26.4725 3.2819C26.504 2.91914 26.3903 2.55871 26.1564 2.27967C25.9225 2.00063 25.5874 1.82578 25.2247 1.79346L23.8497 1.67315C23.6677 1.65522 23.4839 1.67379 23.3091 1.72778C23.1343 1.78178 22.9721 1.8701 22.8319 1.98759C22.6916 2.10508 22.5763 2.24936 22.4925 2.41199C22.4088 2.57462 22.3583 2.75233 22.3441 2.93471L22.1035 5.68471L21.9247 7.74721L21.2269 15.8116H18.9066V13.0616C18.9978 13.0616 19.0852 13.0254 19.1497 12.9609C19.2141 12.8964 19.2503 12.809 19.2503 12.7178V5.47846C19.4509 5.54938 19.6247 5.68061 19.7478 5.85416C19.8709 6.0277 19.9372 6.23507 19.9378 6.44783V14.7803C19.9378 14.8715 19.9741 14.9589 20.0385 15.0234C20.103 15.0879 20.1904 15.1241 20.2816 15.1241C20.3728 15.1241 20.4602 15.0879 20.5247 15.0234C20.5891 14.9589 20.6253 14.8715 20.6253 14.7803V6.44783C20.6254 6.05161 20.4886 5.66753 20.238 5.36059C19.9875 5.05365 19.6386 4.8427 19.2503 4.76346V4.46783C19.2503 4.37667 19.2141 4.28923 19.1497 4.22477C19.0852 4.1603 18.9978 4.12408 18.9066 4.12408H18.5628V2.74908C18.5628 2.29324 18.3818 1.85607 18.0594 1.53374C17.7371 1.21142 17.2999 1.03033 16.8441 1.03033C16.3883 1.03033 15.9511 1.21142 15.6288 1.53374C15.3064 1.85607 15.1253 2.29324 15.1253 2.74908V4.12408H14.7816C14.6904 4.12408 14.603 4.1603 14.5385 4.22477C14.4741 4.28923 14.4378 4.37667 14.4378 4.46783V12.7178C14.4378 12.809 14.4741 12.8964 14.5385 12.9609C14.603 13.0254 14.6904 13.0616 14.7816 13.0616V15.8116H14.6647L11.925 0.284397C11.9174 0.239699 11.9011 0.196946 11.8769 0.158598C11.8527 0.120251 11.8212 0.0870678 11.7841 0.060959C11.7108 0.00758979 11.6194 -0.0146499 11.5297 -0.000915986L5.09816 1.1369C5.05319 1.14491 5.01027 1.1618 4.97191 1.18659C4.93354 1.21138 4.90051 1.24357 4.87472 1.28127C4.82376 1.35558 4.80401 1.44692 4.81972 1.53565L6.3666 10.3356C6.36462 10.3516 6.36462 10.3678 6.3666 10.3838L6.71035 12.3638L7.0541 14.3816L7.33597 15.8116H5.8441C5.75293 15.8116 5.66549 15.8478 5.60103 15.9123C5.53656 15.9767 5.50035 16.0642 5.50035 16.1553V19.5928C5.50035 19.684 5.53656 19.7714 5.60103 19.8359C5.66549 19.9004 5.75293 19.9366 5.8441 19.9366H6.22222L7.56285 32.6897C7.5714 32.7748 7.61136 32.8536 7.67492 32.9108C7.73848 32.9681 7.82108 32.9995 7.9066 32.9991H24.4066C24.4921 32.9995 24.5747 32.9681 24.6383 32.9108C24.7018 32.8536 24.7418 32.7748 24.7503 32.6897L26.091 19.9366H26.4691C26.5603 19.9366 26.6477 19.9004 26.7122 19.8359C26.7766 19.7714 26.8128 19.684 26.8128 19.5928V16.1553C26.8128 16.0642 26.7766 15.9767 26.7122 15.9123C26.6477 15.8478 26.5603 15.8116 26.4691 15.8116ZM22.7703 6.07658L25.5203 6.31721L25.4 7.69221L22.65 7.45158L22.7703 6.07658ZM23.0385 2.98283C23.0576 2.80334 23.1465 2.63856 23.2861 2.52408C23.4257 2.4096 23.6046 2.3546 23.7844 2.37096L25.1594 2.49127C25.2497 2.50064 25.3371 2.52833 25.4163 2.57266C25.4955 2.61699 25.5648 2.67703 25.62 2.74908C25.6783 2.8155 25.7226 2.89292 25.7503 2.97677C25.7781 3.06061 25.7887 3.14918 25.7816 3.23721L25.5719 5.64346L22.8219 5.40283L23.0385 2.98283ZM22.5916 8.11846L25.3416 8.35908L24.6747 15.8116H21.9247L22.5916 8.11846ZM15.8128 2.74908C15.8128 2.47558 15.9215 2.21328 16.1149 2.01988C16.3083 1.82648 16.5706 1.71783 16.8441 1.71783C17.1176 1.71783 17.3799 1.82648 17.5733 2.01988C17.7667 2.21328 17.8753 2.47558 17.8753 2.74908V4.12408H15.8128V2.74908ZM15.1253 4.81158H18.5628V12.3741H15.1253V4.81158ZM15.4691 13.0616H18.2191V15.8116H15.4691V13.0616ZM7.8241 14.6188L9.51535 14.3231C9.55982 14.3153 9.6023 14.2987 9.64037 14.2744C9.67844 14.2501 9.71134 14.2185 9.7372 14.1815C9.76306 14.1444 9.78136 14.1027 9.79107 14.0586C9.80078 14.0145 9.8017 13.9689 9.79378 13.9244C9.7859 13.8799 9.76933 13.8374 9.74502 13.7994C9.72072 13.7613 9.68914 13.7284 9.65211 13.7025C9.61508 13.6767 9.57331 13.6584 9.5292 13.6487C9.48509 13.639 9.4395 13.638 9.39503 13.646L7.70378 13.9416L7.4666 12.5872L8.49785 12.4085C8.58038 12.3888 8.65273 12.3393 8.70096 12.2695C8.74919 12.1997 8.76989 12.1145 8.7591 12.0303C8.75161 11.9856 8.73533 11.9427 8.7112 11.9042C8.68706 11.8658 8.65555 11.8325 8.61847 11.8063C8.5814 11.7801 8.5395 11.7615 8.49519 11.7515C8.45089 11.7416 8.40506 11.7406 8.36035 11.7485L7.34628 11.9272L7.1091 10.5728L8.80035 10.2772C8.84482 10.2693 8.8873 10.2528 8.92537 10.2284C8.96344 10.2041 8.99634 10.1726 9.0222 10.1355C9.04806 10.0985 9.06636 10.0567 9.07607 10.0126C9.08578 9.96852 9.0867 9.92293 9.07878 9.87846C9.0709 9.83399 9.05433 9.7915 9.03002 9.75344C9.00572 9.71537 8.97414 9.68247 8.93711 9.65661C8.90008 9.63075 8.85831 9.61244 8.8142 9.60273C8.77009 9.59302 8.7245 9.5921 8.68003 9.60002L6.98535 9.89908L6.74816 8.54471L7.77941 8.36596C7.82388 8.35808 7.86637 8.34151 7.90443 8.3172C7.9425 8.29289 7.9754 8.26132 8.00126 8.22428C8.02712 8.18725 8.04543 8.14549 8.05514 8.10138C8.06485 8.05727 8.06577 8.01168 8.05785 7.96721C8.04997 7.92274 8.0334 7.88025 8.00909 7.84219C7.98478 7.80412 7.9532 7.77122 7.91617 7.74536C7.87914 7.7195 7.83738 7.70119 7.79327 7.69148C7.74916 7.68177 7.70356 7.68085 7.6591 7.68877L6.62785 7.86752L6.39066 6.51315L8.08191 6.18658C8.12705 6.17891 8.17024 6.16242 8.20901 6.13805C8.24778 6.11369 8.28137 6.08193 8.30786 6.04458C8.33436 6.00723 8.35323 5.96503 8.36342 5.92039C8.3736 5.87575 8.3749 5.82954 8.36722 5.7844C8.35955 5.73925 8.34306 5.69607 8.31869 5.6573C8.29433 5.61853 8.26257 5.58494 8.22522 5.55844C8.18787 5.53195 8.14567 5.51307 8.10103 5.50289C8.05639 5.4927 8.01018 5.49141 7.96503 5.49908L6.27035 5.79815L6.03316 4.46783L7.04722 4.28908C7.09236 4.28141 7.13555 4.26492 7.17432 4.24055C7.21309 4.21619 7.24668 4.18443 7.27317 4.14708C7.29967 4.10973 7.31855 4.06753 7.32873 4.02289C7.33892 3.97825 7.34021 3.93204 7.33253 3.8869C7.32486 3.84175 7.30837 3.79857 7.28401 3.7598C7.25964 3.72103 7.22788 3.68744 7.19053 3.66094C7.15318 3.63445 7.11099 3.61557 7.06634 3.60539C7.0217 3.5952 6.97549 3.59391 6.93035 3.60158L5.8991 3.78033L5.55535 1.74877L11.3097 0.741584L13.9669 15.8116H8.03378L7.8241 14.6188ZM24.0972 32.3116H8.21597L6.91316 19.9366H25.4L24.0972 32.3116ZM26.1253 19.2491H6.18785V16.4991H26.1253V19.2491Z" fill="#39426A"/>
<path d="M5.5 2L11.5 1L14 16H8L5.5 2Z" fill="#FFFAEA"/>
<path d="M12.375 29.5625H19.9375C20.3933 29.5625 20.8305 29.3814 21.1528 29.0591C21.4752 28.7368 21.6562 28.2996 21.6562 27.8438V24.4062C21.6562 23.9504 21.4752 23.5132 21.1528 23.1909C20.8305 22.8686 20.3933 22.6875 19.9375 22.6875H12.375C11.9192 22.6875 11.482 22.8686 11.1597 23.1909C10.8373 23.5132 10.6562 23.9504 10.6562 24.4062V27.8438C10.6562 28.2996 10.8373 28.7368 11.1597 29.0591C11.482 29.3814 11.9192 29.5625 12.375 29.5625ZM11.3438 24.4062C11.3438 24.1327 11.4524 23.8704 11.6458 23.677C11.8392 23.4836 12.1015 23.375 12.375 23.375H19.9375C20.211 23.375 20.4733 23.4836 20.6667 23.677C20.8601 23.8704 20.9688 24.1327 20.9688 24.4062V27.8438C20.9688 28.1173 20.8601 28.3796 20.6667 28.573C20.4733 28.7664 20.211 28.875 19.9375 28.875H12.375C12.1015 28.875 11.8392 28.7664 11.6458 28.573C11.4524 28.3796 11.3438 28.1173 11.3438 27.8438V24.4062Z" fill="#39426A"/>
</g>
<defs>
<clipPath id="clip0_2628_9108">
<rect width="33" height="33" fill="white"/>
</clipPath>
</defs>
</svg>
