<svg width="24" height="24" viewBox="0 0 24 24" fill="none" xmlns="http://www.w3.org/2000/svg">
<path d="M20.6912 3.00003H13.7687C12.5388 2.99996 7.86417 3.00003 5.46175 3.00003C4.91096 3.00003 4.38274 3.21883 3.99327 3.6083C3.60381 3.99776 3.38501 4.52599 3.38501 5.07678V16.1527C3.38501 16.7035 3.60381 17.2317 3.99327 17.6212C4.38274 18.0107 4.91096 18.2295 5.46175 18.2295H10.0998L9.02682 19.9393C8.97849 20.0165 8.94587 20.1026 8.93084 20.1924C8.91582 20.2823 8.91867 20.3742 8.93925 20.463C8.95983 20.5517 8.99773 20.6355 9.05077 20.7096C9.10381 20.7837 9.17095 20.8465 9.24834 20.8946C9.32557 20.943 9.41157 20.9756 9.50143 20.9906C9.59129 21.0056 9.68323 21.0028 9.77198 20.9822C9.86073 20.9616 9.94454 20.9237 10.0186 20.8707C10.0927 20.8176 10.1556 20.7505 10.2036 20.6731L11.7266 18.2295H14.461L15.9839 20.6731C16.032 20.7505 16.0948 20.8176 16.1689 20.8707C16.243 20.9237 16.3268 20.9616 16.4156 20.9822C16.5043 21.0028 16.5963 21.0056 16.6861 20.9906C16.776 20.9756 16.862 20.943 16.9392 20.8946C17.0166 20.8465 17.0837 20.7837 17.1368 20.7096C17.1898 20.6355 17.2277 20.5517 17.2483 20.463C17.2689 20.3742 17.2717 20.2823 17.2567 20.1924C17.2417 20.1026 17.2091 20.0165 17.1607 19.9393L16.0531 18.2295H20.6912C21.242 18.2295 21.7702 18.0107 22.1597 17.6212C22.5491 17.2317 22.7679 16.7035 22.7679 16.1527V5.07678C22.7679 4.52599 22.5491 3.99776 22.1597 3.6083C21.7702 3.21883 21.242 3.00003 20.6912 3.00003ZM4.7695 5.07678C4.7695 4.89318 4.84244 4.7171 4.97226 4.58728C5.10208 4.45746 5.27815 4.38453 5.46175 4.38453H20.6912C20.8748 4.38453 21.0508 4.45746 21.1807 4.58728C21.3105 4.7171 21.3834 4.89318 21.3834 5.07678V14.076H19.9989C17.385 14.076 15.885 14.076 14.461 14.076H4.7695V5.07678ZM21.3834 16.1527C21.3834 16.3363 21.3105 16.5124 21.1807 16.6422C21.0508 16.772 20.8748 16.845 20.6912 16.845H5.46175C5.27815 16.845 5.10208 16.772 4.97226 16.6422C4.84244 16.5124 4.7695 16.3363 4.7695 16.1527V15.4605H21.3834V16.1527Z" fill="#0172E8"/>
</svg>
