<svg width="26" height="32" viewBox="0 0 26 32" fill="none" xmlns="http://www.w3.org/2000/svg">
<path d="M15.7481 1.66797H4.41475C3.66331 1.66797 2.94264 1.96648 2.41128 2.49783C1.87993 3.02919 1.58142 3.74986 1.58142 4.5013V27.168C1.58142 27.9194 1.87993 28.6401 2.41128 29.1714C2.94264 29.7028 3.66331 30.0013 4.41475 30.0013H21.4148C22.1662 30.0013 22.8869 29.7028 23.4182 29.1714C23.9496 28.6401 24.2481 27.9194 24.2481 27.168V10.168M15.7481 1.66797L24.2481 10.168M15.7481 1.66797V10.168H24.2481M18.5814 22.918H11.0814" stroke="white" stroke-width="2.125" stroke-linecap="round" stroke-linejoin="round"/>
<path d="M5.58142 20.9533L7.03475 22.668L9.58142 19.668" stroke="white" stroke-width="1.04651" stroke-linecap="round" stroke-linejoin="round"/>
</svg>
