<svg width="24" height="24" viewBox="0 0 24 24" fill="none" xmlns="http://www.w3.org/2000/svg">
<g clip-path="url(#clip0_3137_8932)">
<path d="M0.730632 23.9157H23.264C23.4408 23.9157 23.6103 23.8455 23.7354 23.7205C23.8604 23.5954 23.9306 23.4259 23.9306 23.2491C23.9306 23.0723 23.8604 22.9027 23.7354 22.7777C23.6103 22.6526 23.4408 22.5824 23.264 22.5824H0.730632C0.553821 22.5824 0.384251 22.6526 0.259227 22.7777C0.134203 22.9027 0.0639648 23.0723 0.0639648 23.2491C0.0639648 23.4259 0.134203 23.5954 0.259227 23.7205C0.384251 23.8455 0.553821 23.9157 0.730632 23.9157ZM8.94663 18.9051C9.50983 18.7474 10.0237 18.4492 10.44 18.0384L23.16 5.3184C23.5956 4.88108 23.8401 4.28898 23.8401 3.67173C23.8401 3.05449 23.5956 2.46239 23.16 2.02507L21.9066 0.785067C21.4631 0.361407 20.8733 0.125 20.26 0.125C19.6466 0.125 19.0568 0.361407 18.6133 0.785067L5.8933 13.4917C5.48175 13.9053 5.18729 14.4206 5.03997 14.9851L4.0533 18.6651C4.00649 18.8332 4.00528 19.0107 4.0498 19.1794C4.09433 19.3481 4.18297 19.502 4.30663 19.6251C4.49536 19.8106 4.74866 19.9157 5.0133 19.9184L8.94663 18.9051ZM9.4933 17.0917C9.24749 17.342 8.93896 17.5216 8.59996 17.6117L7.30663 17.9584L5.9733 16.6251L6.31996 15.3317C6.41323 14.994 6.59238 14.6863 6.83996 14.4384L7.34663 13.9451L9.99996 16.5984L9.4933 17.0917ZM10.9466 15.6517L8.2933 12.9984L17.2666 4.02507L19.92 6.6784L10.9466 15.6517ZM22.2133 4.38507L20.8666 5.73173L18.2133 3.0784L19.56 1.7184C19.6526 1.62536 19.7628 1.55153 19.884 1.50115C20.0053 1.45077 20.1353 1.42484 20.2666 1.42484C20.3979 1.42484 20.528 1.45077 20.6492 1.50115C20.7705 1.55153 20.8806 1.62536 20.9733 1.7184L22.2133 2.97173C22.3993 3.15992 22.5036 3.41383 22.5036 3.6784C22.5036 3.94297 22.3993 4.19688 22.2133 4.38507Z" fill="#0172E8"/>
</g>
<defs>
<clipPath id="clip0_3137_8932">
<rect width="24" height="24" fill="white"/>
</clipPath>
</defs>
</svg>
