<svg width="24" height="17" viewBox="0 0 24 17" fill="none" xmlns="http://www.w3.org/2000/svg">
<g clip-path="url(#clip0_3137_8939)">
<path d="M23.9311 8.176C23.8961 8.097 23.0491 6.218 21.1661 4.335C18.6571 1.826 15.4881 0.5 12.0001 0.5C8.51211 0.5 5.34311 1.826 2.83411 4.335C0.951113 6.218 0.100112 8.1 0.0691125 8.176C0.0236257 8.27831 0.00012207 8.38903 0.00012207 8.501C0.00012207 8.61297 0.0236257 8.72369 0.0691125 8.826C0.104112 8.905 0.951113 10.783 2.83411 12.666C5.34311 15.174 8.51211 16.5 12.0001 16.5C15.4881 16.5 18.6571 15.174 21.1661 12.666C23.0491 10.783 23.8961 8.905 23.9311 8.826C23.9766 8.72369 24.0001 8.61297 24.0001 8.501C24.0001 8.38903 23.9766 8.27831 23.9311 8.176ZM12.0001 14.9C8.92211 14.9 6.23311 13.781 4.00711 11.575C3.09376 10.6667 2.3167 9.63095 1.70011 8.5C2.31653 7.36894 3.09361 6.33318 4.00711 5.425C6.23311 3.219 8.92211 2.1 12.0001 2.1C15.0781 2.1 17.7671 3.219 19.9931 5.425C20.9082 6.33296 21.687 7.36872 22.3051 8.5C21.5841 9.846 18.4431 14.9 12.0001 14.9ZM12.0001 3.7C11.0508 3.7 10.1227 3.98152 9.33337 4.50895C8.54402 5.03638 7.92879 5.78603 7.56549 6.66312C7.20219 7.54021 7.10713 8.50532 7.29234 9.43643C7.47755 10.3675 7.93471 11.2228 8.606 11.8941C9.27729 12.5654 10.1326 13.0226 11.0637 13.2078C11.9948 13.393 12.9599 13.2979 13.837 12.9346C14.7141 12.5713 15.4637 11.9561 15.9912 11.1667C16.5186 10.3774 16.8001 9.44935 16.8001 8.5C16.7988 7.22737 16.2927 6.00724 15.3928 5.10735C14.4929 4.20746 13.2727 3.70132 12.0001 3.7ZM12.0001 11.7C11.3672 11.7 10.7485 11.5123 10.2223 11.1607C9.69605 10.8091 9.2859 10.3093 9.0437 9.72459C8.8015 9.13986 8.73813 8.49645 8.8616 7.87571C8.98507 7.25497 9.28984 6.68479 9.73737 6.23726C10.1849 5.78973 10.7551 5.48496 11.3758 5.36149C11.9966 5.23801 12.64 5.30138 13.2247 5.54359C13.8094 5.78579 14.3092 6.19594 14.6608 6.72218C15.0124 7.24841 15.2001 7.8671 15.2001 8.5C15.2001 9.34869 14.863 10.1626 14.2629 10.7627C13.6627 11.3629 12.8488 11.7 12.0001 11.7Z" fill="#0172E8"/>
</g>
<defs>
<clipPath id="clip0_3137_8939">
<rect width="24" height="16" fill="white" transform="translate(0 0.5)"/>
</clipPath>
</defs>
</svg>
