<svg width="34" height="31" viewBox="0 0 34 31" fill="none" xmlns="http://www.w3.org/2000/svg">
<path d="M2.52381 21.7086L7.99429 16.2381H22.3333C23.1416 16.2381 23.9168 15.917 24.4883 15.3455C25.0599 14.7739 25.381 13.9988 25.381 13.1905V5.57143C25.381 4.76315 25.0599 3.98798 24.4883 3.41644C23.9168 2.8449 23.1416 2.52381 22.3333 2.52381H5.57143C4.76315 2.52381 3.98798 2.8449 3.41644 3.41644C2.8449 3.98798 2.52381 4.76315 2.52381 5.57143V21.7086ZM2.52381 23.8571H1V5.57143C1 4.35901 1.48163 3.19625 2.33894 2.33894C3.19625 1.48163 4.35901 1 5.57143 1H22.3333C23.5458 1 24.7085 1.48163 25.5658 2.33894C26.4231 3.19625 26.9048 4.35901 26.9048 5.57143V13.1905C26.9048 14.4029 26.4231 15.5657 25.5658 16.423C24.7085 17.2803 23.5458 17.7619 22.3333 17.7619H8.61905L2.52381 23.8571ZM31.4762 27.8038V11.6667C31.4762 10.8584 31.1551 10.0832 30.5836 9.51167C30.012 8.94014 29.2369 8.61905 28.4286 8.61905V7.09524C29.641 7.09524 30.8038 7.57687 31.6611 8.43418C32.5184 9.29149 33 10.4542 33 11.6667V29.9524H31.4762L25.381 23.8571H11.6667C9.77714 23.8571 8.1619 22.7143 7.46095 21.0838L8.68 19.8648C8.93905 21.2667 10.1429 22.3333 11.6667 22.3333H26.0057L31.4762 27.8038Z" fill="white" stroke="white" stroke-width="0.4"/>
</svg>
