<svg width="26" height="32" viewBox="0 0 26 32" fill="none" xmlns="http://www.w3.org/2000/svg">
<path d="M16.0827 1.66602H4.74935C3.9979 1.66602 3.27723 1.96453 2.74588 2.49588C2.21453 3.02723 1.91602 3.7479 1.91602 4.49935V27.166C1.91602 27.9175 2.21453 28.6381 2.74588 29.1695C3.27723 29.7008 3.9979 29.9993 4.74935 29.9993H21.7493C22.5008 29.9993 23.2215 29.7008 23.7528 29.1695C24.2842 28.6381 24.5827 27.9175 24.5827 27.166V10.166M16.0827 1.66602L24.5827 10.166M16.0827 1.66602V10.166H24.5827" stroke="white" stroke-width="2.125" stroke-linecap="round" stroke-linejoin="round"/>
<path d="M19.002 22.998H7.00195" stroke="white" stroke-width="2.125" stroke-linecap="round" stroke-linejoin="round"/>
<path d="M19.002 18.998H7.00195" stroke="white" stroke-width="2.125" stroke-linecap="round" stroke-linejoin="round"/>
<path d="M7.56195 11.578C7.10862 11.578 6.74529 11.4614 6.47195 11.228C6.19862 10.9947 6.04862 10.678 6.02195 10.278C6.00862 10.078 6.00195 9.93805 6.00195 9.85805C6.00195 9.77138 6.00862 9.59471 6.02195 9.32805C6.04195 8.92138 6.18529 8.59805 6.45195 8.35805C6.71862 8.11805 7.08862 7.99805 7.56195 7.99805C8.03529 7.99805 8.40529 8.11805 8.67195 8.35805C8.93862 8.59805 9.08529 8.92138 9.11195 9.32805C9.12529 9.59471 9.13195 9.77138 9.13195 9.85805C9.13195 9.93805 9.12529 10.078 9.11195 10.278C9.08529 10.678 8.93195 10.9947 8.65195 11.228C8.37862 11.4614 8.01529 11.578 7.56195 11.578ZM6.77195 15.048C6.70529 15.048 6.64862 15.0314 6.60195 14.998C6.56195 14.958 6.54195 14.908 6.54195 14.848C6.54195 14.808 6.55529 14.7714 6.58195 14.738L11.522 8.23805C11.5753 8.17138 11.6253 8.12471 11.672 8.09805C11.7186 8.06471 11.7853 8.04805 11.872 8.04805H12.622C12.6886 8.04805 12.742 8.06805 12.782 8.10805C12.8286 8.14138 12.852 8.18805 12.852 8.24805C12.852 8.28805 12.8386 8.32471 12.812 8.35805L7.87195 14.858C7.81862 14.9247 7.76862 14.9747 7.72195 15.008C7.67529 15.0347 7.60862 15.048 7.52195 15.048H6.77195ZM7.56195 10.688C7.70862 10.688 7.81529 10.6447 7.88195 10.558C7.95529 10.4647 7.99529 10.3514 8.00195 10.218C8.01529 10.018 8.02195 9.87805 8.02195 9.79805C8.02195 9.71138 8.01529 9.57471 8.00195 9.38805C7.99529 9.24805 7.95529 9.13471 7.88195 9.04805C7.81529 8.95471 7.70862 8.90805 7.56195 8.90805C7.29529 8.90805 7.14862 9.06805 7.12195 9.38805C7.11529 9.48138 7.11195 9.61805 7.11195 9.79805C7.11195 9.97805 7.11529 10.118 7.12195 10.218C7.13529 10.358 7.17529 10.4714 7.24195 10.558C7.31529 10.6447 7.42195 10.688 7.56195 10.688ZM11.852 15.098C11.3986 15.098 11.032 14.978 10.752 14.738C10.4786 14.498 10.3286 14.178 10.302 13.778C10.2886 13.578 10.282 13.438 10.282 13.358C10.282 13.278 10.2886 13.1047 10.302 12.838C10.3286 12.4247 10.4753 12.098 10.742 11.858C11.0086 11.618 11.3786 11.498 11.852 11.498C12.3253 11.498 12.6953 11.618 12.962 11.858C13.2286 12.098 13.372 12.4247 13.392 12.838C13.4053 13.1047 13.412 13.278 13.412 13.358C13.412 13.438 13.4053 13.578 13.392 13.778C13.3653 14.178 13.2153 14.498 12.942 14.738C12.6686 14.978 12.3053 15.098 11.852 15.098ZM11.852 14.198C11.992 14.198 12.0953 14.1547 12.162 14.068C12.2353 13.9747 12.2786 13.858 12.292 13.718C12.3053 13.518 12.312 13.378 12.312 13.298C12.312 13.2114 12.3053 13.0747 12.292 12.888C12.2786 12.748 12.2353 12.6347 12.162 12.548C12.0953 12.4614 11.992 12.418 11.852 12.418C11.7053 12.418 11.5953 12.4647 11.522 12.558C11.4553 12.6447 11.4186 12.7547 11.412 12.888C11.4053 12.9814 11.402 13.118 11.402 13.298C11.402 13.478 11.4053 13.618 11.412 13.718C11.4186 13.858 11.4553 13.9747 11.522 14.068C11.5953 14.1547 11.7053 14.198 11.852 14.198Z" fill="white"/>
</svg>
