<svg width="26" height="20" viewBox="0 0 26 20" fill="none" xmlns="http://www.w3.org/2000/svg">
<path d="M4.86515 16.2213C2.70044 16.143 1.22998 15.7266 1.22998 13.8562C1.22998 11.6866 3.20781 9.45752 5.95119 8.6477C4.89342 7.9387 4.19713 6.73217 4.19713 5.36294C4.19713 3.17979 5.96635 1.41016 8.14868 1.41016C9.48594 1.41016 10.6675 2.07408 11.383 3.09045" stroke="#0172E8" stroke-miterlimit="10"/>
<path d="M21.3644 16.2213C23.5295 16.143 25 15.7266 25 13.8562C25 11.6866 23.0222 9.45752 20.2788 8.6477C21.3365 7.9387 22.0328 6.73217 22.0328 5.36294C22.0328 3.17979 20.2636 1.41016 18.0813 1.41016C16.744 1.41016 15.5625 2.07408 14.8469 3.09045" stroke="#0172E8" stroke-miterlimit="10"/>
<path d="M13.0326 4.58919C14.9055 4.58919 16.4292 6.11333 16.4292 7.98665C16.4292 9.12146 15.8653 10.1768 14.9202 10.8104L13.4698 11.7829L15.1448 12.2771C17.6812 13.0259 19.5943 15.0771 19.5943 17.0487C19.5943 18.2389 18.9898 18.77 15.4091 18.77C15.0489 18.77 14.6764 18.7659 14.2936 18.7622C13.8838 18.7581 13.4625 18.754 13.033 18.754C12.6031 18.754 12.1822 18.7581 11.7723 18.7622C11.39 18.7659 11.017 18.77 10.6568 18.77C7.07572 18.77 6.47163 18.2389 6.47163 17.0487C6.47163 15.0775 8.38429 13.0267 10.9207 12.2775L12.5957 11.7833L11.1449 10.8108C10.1998 10.1772 9.6355 9.12146 9.6355 7.98665C9.63591 6.11333 11.1596 4.58919 13.0326 4.58919ZM13.0326 3.76953C10.7039 3.76953 8.81625 5.65719 8.81625 7.98665C8.81625 9.44727 9.55968 10.7345 10.6888 11.4915C7.76177 12.3554 5.65198 14.734 5.65198 17.0487C5.65198 19.3544 7.74619 19.5897 10.6568 19.5897C11.4027 19.5897 12.2018 19.5741 13.033 19.5741C13.8641 19.5741 14.6637 19.5897 15.4091 19.5897C18.3201 19.5897 20.4139 19.3544 20.4139 17.0487C20.4139 14.7345 18.3037 12.355 15.3768 11.4911C16.5054 10.7341 17.2484 9.44768 17.2484 7.98665C17.2488 5.6576 15.3612 3.76953 13.0326 3.76953Z" fill="#0172E8" stroke="#0172E8" stroke-width="0.6"/>
</svg>
