<svg width="32" height="32" viewBox="0 0 32 32" fill="none" xmlns="http://www.w3.org/2000/svg">
<path d="M24.4783 13.3913C24.4783 13.5643 24.4096 13.7302 24.2872 13.8525C24.1649 13.9748 23.9991 14.0435 23.8261 14.0435H13.3913C13.2183 14.0435 13.0525 13.9748 12.9301 13.8525C12.8078 13.7302 12.7391 13.5643 12.7391 13.3913C12.7391 13.2183 12.8078 13.0525 12.9301 12.9301C13.0525 12.8078 13.2183 12.7391 13.3913 12.7391H23.8261C23.9991 12.7391 24.1649 12.8078 24.2872 12.9301C24.4096 13.0525 24.4783 13.2183 24.4783 13.3913ZM23.8261 17.9565H13.3913C13.2183 17.9565 13.0525 18.0252 12.9301 18.1475C12.8078 18.2698 12.7391 18.4357 12.7391 18.6087C12.7391 18.7817 12.8078 18.9475 12.9301 19.0699C13.0525 19.1922 13.2183 19.2609 13.3913 19.2609H23.8261C23.9991 19.2609 24.1649 19.1922 24.2872 19.0699C24.4096 18.9475 24.4783 18.7817 24.4783 18.6087C24.4783 18.4357 24.4096 18.2698 24.2872 18.1475C24.1649 18.0252 23.9991 17.9565 23.8261 17.9565ZM31 2.95652V29.0435C31 29.5624 30.7939 30.06 30.4269 30.4269C30.06 30.7939 29.5624 31 29.0435 31H2.95652C2.43762 31 1.93997 30.7939 1.57305 30.4269C1.20613 30.06 1 29.5624 1 29.0435V2.95652C1 2.43762 1.20613 1.93997 1.57305 1.57305C1.93997 1.20613 2.43762 1 2.95652 1H29.0435C29.5624 1 30.06 1.20613 30.4269 1.57305C30.7939 1.93997 31 2.43762 31 2.95652ZM2.95652 29.6957H7.52174V2.30435H2.95652C2.78355 2.30435 2.61767 2.37306 2.49537 2.49537C2.37306 2.61767 2.30435 2.78355 2.30435 2.95652V29.0435C2.30435 29.2164 2.37306 29.3823 2.49537 29.5046C2.61767 29.6269 2.78355 29.6957 2.95652 29.6957ZM29.6957 2.95652C29.6957 2.78355 29.6269 2.61767 29.5046 2.49537C29.3823 2.37306 29.2164 2.30435 29.0435 2.30435H8.82609V29.6957H29.0435C29.2164 29.6957 29.3823 29.6269 29.5046 29.5046C29.6269 29.3823 29.6957 29.2164 29.6957 29.0435V2.95652Z" fill="white" stroke="white" stroke-width="0.5"/>
</svg>
