<svg width="36" height="30" viewBox="0 0 36 30" fill="none" xmlns="http://www.w3.org/2000/svg">
<path d="M33.1395 0H2.44186C1.79424 0 1.17314 0.257267 0.715204 0.715204C0.257267 1.17314 0 1.79424 0 2.44186V27.5581C0 28.2058 0.257267 28.8269 0.715204 29.2848C1.17314 29.7427 1.79424 30 2.44186 30H4.77733C4.97536 29.9999 5.16931 29.9437 5.33665 29.8378C5.50399 29.7319 5.63785 29.5807 5.72267 29.4017C6.42937 27.9093 7.54528 26.6481 8.9406 25.765C10.3359 24.8818 11.9533 24.413 13.6047 24.413C15.256 24.413 16.8734 24.8818 18.2687 25.765C19.664 26.6481 20.7799 27.9093 21.4866 29.4017C21.5715 29.5807 21.7053 29.7319 21.8727 29.8378C22.04 29.9437 22.2339 29.9999 22.432 30H33.1395C33.7872 30 34.4083 29.7427 34.8662 29.2848C35.3241 28.8269 35.5814 28.2058 35.5814 27.5581V2.44186C35.5814 1.79424 35.3241 1.17314 34.8662 0.715204C34.4083 0.257267 33.7872 0 33.1395 0ZM9.06977 17.7907C9.06977 16.8938 9.33573 16.017 9.83403 15.2713C10.3323 14.5255 11.0406 13.9442 11.8692 13.601C12.6979 13.2578 13.6097 13.168 14.4894 13.3429C15.369 13.5179 16.1771 13.9498 16.8113 14.5841C17.4455 15.2183 17.8774 16.0263 18.0524 16.906C18.2274 17.7857 18.1376 18.6975 17.7943 19.5261C17.4511 20.3548 16.8699 21.063 16.1241 21.5613C15.3783 22.0596 14.5016 22.3256 13.6047 22.3256C12.4019 22.3256 11.2485 21.8478 10.398 20.9973C9.54755 20.1469 9.06977 18.9934 9.06977 17.7907ZM33.4884 27.5581C33.4884 27.6507 33.4516 27.7394 33.3862 27.8048C33.3208 27.8702 33.2321 27.907 33.1395 27.907H23.0703C21.8501 25.7167 19.9104 24.0155 17.5797 23.0913C18.6929 22.2569 19.5154 21.0933 19.9306 19.7654C20.3457 18.4376 20.3325 17.0127 19.8928 15.6927C19.453 14.3728 18.6091 13.2247 17.4805 12.4111C16.3519 11.5975 14.9959 11.1597 13.6047 11.1597C12.2134 11.1597 10.8574 11.5975 9.7288 12.4111C8.60021 13.2247 7.75626 14.3728 7.31652 15.6927C6.87678 17.0127 6.86355 18.4376 7.27871 19.7654C7.69387 21.0933 8.51636 22.2569 9.62965 23.0913C7.29893 24.0155 5.35922 25.7167 4.13895 27.907H2.44186C2.34934 27.907 2.26061 27.8702 2.19519 27.8048C2.12978 27.7394 2.09302 27.6507 2.09302 27.5581V2.44186C2.09302 2.34934 2.12978 2.26061 2.19519 2.19519C2.26061 2.12978 2.34934 2.09302 2.44186 2.09302H33.1395C33.2321 2.09302 33.3208 2.12978 33.3862 2.19519C33.4516 2.26061 33.4884 2.34934 33.4884 2.44186V27.5581ZM30 6.62791V23.3721C30 23.6496 29.8897 23.9158 29.6935 24.1121C29.4972 24.3083 29.231 24.4186 28.9535 24.4186H26.1628C25.8852 24.4186 25.6191 24.3083 25.4228 24.1121C25.2265 23.9158 25.1163 23.6496 25.1163 23.3721C25.1163 23.0945 25.2265 22.8284 25.4228 22.6321C25.6191 22.4358 25.8852 22.3256 26.1628 22.3256H27.907V7.67442H7.67442V9.4186C7.67442 9.69616 7.56416 9.96234 7.3679 10.1586C7.17164 10.3549 6.90546 10.4651 6.62791 10.4651C6.35035 10.4651 6.08417 10.3549 5.88791 10.1586C5.69165 9.96234 5.5814 9.69616 5.5814 9.4186V6.62791C5.5814 6.35035 5.69165 6.08417 5.88791 5.88791C6.08417 5.69165 6.35035 5.5814 6.62791 5.5814H28.9535C29.231 5.5814 29.4972 5.69165 29.6935 5.88791C29.8897 6.08417 30 6.35035 30 6.62791Z" fill="white"/>
</svg>
