<svg width="37" height="33" viewBox="0 0 37 33" fill="none" xmlns="http://www.w3.org/2000/svg">
<rect width="37" height="32.7101" rx="4.28986" fill="#002536"/>
<path d="M10.9175 8.96169C10.9175 9.90477 10.1519 10.6672 9.21202 10.6672C8.26976 10.6672 7.50732 9.90477 7.50732 8.96169C7.50732 8.01984 8.26976 7.25781 9.21202 7.25781C10.1519 7.25781 10.9175 8.01984 10.9175 8.96169Z" fill="white"/>
<path d="M15.5508 24.7675C15.5508 25.3224 15.0326 25.7741 14.3967 25.7741C13.7568 25.7741 13.2402 25.3224 13.2402 24.7675L13.2425 19.5948H8.28215C8.1503 19.5948 8.04353 19.504 8.04353 19.3846V12.0443C8.04353 11.9269 8.1503 11.832 8.28215 11.832H10.106C10.2363 11.832 10.3447 11.9269 10.3447 12.0443V17.5673H15.3043C15.4369 17.5673 15.5422 17.6604 15.5422 17.7796L15.5508 24.7675Z" fill="white"/>
<path d="M26.0826 8.9769C26.0826 9.91875 26.8466 10.682 27.7873 10.682C28.7295 10.682 29.4928 9.91875 29.4928 8.9769C29.4928 8.0367 28.7295 7.27344 27.7873 7.27344C26.8466 7.27344 26.0826 8.0367 26.0826 8.9769Z" fill="white"/>
<path d="M21.4493 24.767C21.4493 25.3218 21.9653 25.7741 22.6021 25.7741C23.2405 25.7741 23.7589 25.3218 23.7589 24.767L23.7565 19.596H28.7171C28.8491 19.596 28.9566 19.5007 28.9566 19.383V12.044C28.9566 11.9266 28.8491 11.832 28.7171 11.832H26.896C26.7649 11.832 26.6549 11.9266 26.6549 12.044V17.5669H21.6936C21.5617 17.5669 21.4525 17.6604 21.4525 17.777L21.4493 24.767Z" fill="white"/>
<path d="M17.8107 16.4837H13.4058V15.0508H24.1305V16.4837H19.7052V25.7754H17.8107V16.4837Z" fill="#E1F1F4"/>
<path d="M18.8673 10.4321C19.8239 10.4321 20.6008 9.65396 20.6008 8.6965C20.6008 7.74101 19.8239 6.96484 18.8673 6.96484C17.9106 6.96484 17.1345 7.74101 17.1345 8.6965C17.1345 9.65396 17.9106 10.4321 18.8673 10.4321Z" fill="#E1F1F4"/>
<path d="M16.2091 13.0005H16.6682L16.6665 15.094H21.0503V12.982H21.5247V15.094H22.9877V12.6811C22.8281 10.7817 20.6225 10.8086 20.6225 10.8086H17.1481C14.6553 10.8543 14.7459 12.6811 14.7459 12.6811V15.094H16.2091V13.0005Z" fill="#E1F1F4"/>
</svg>
