<svg width="19" height="19" viewBox="0 0 19 19" fill="none" xmlns="http://www.w3.org/2000/svg">
<path d="M8.88794 17.9219H5.85809C5.41134 17.9219 4.97957 17.7378 4.64205 17.4033C4.30453 17.0688 4.08391 16.6064 4.02069 16.1009L2.39209 3.07422" stroke="#0172E8" stroke-width="1.5" stroke-linecap="round" stroke-linejoin="round"/>
<path d="M8.88867 17.9219H12.8465C13.2933 17.9219 13.725 17.7378 14.0625 17.4033C14.4001 17.0688 14.6207 16.6064 14.6839 16.1009L16.3125 3.07422" stroke="#0172E8" stroke-width="1.5" stroke-linecap="round" stroke-linejoin="round"/>
<path d="M1 3.07422H17.7036" stroke="#0172E8" stroke-width="1.5" stroke-linecap="round" stroke-linejoin="round"/>
<path d="M7.02783 6.78906L7.49182 14.2129" stroke="#0172E8" stroke-width="1.5" stroke-linecap="round" stroke-linejoin="round"/>
<path d="M11.2344 14.2129L11.6984 6.78906" stroke="#0172E8" stroke-width="1.5" stroke-linecap="round" stroke-linejoin="round"/>
<path d="M11.9284 2.75817C11.6267 2.17103 11.2339 1.70456 10.7845 1.39971C10.3352 1.09487 9.8431 0.960984 9.35141 1.00982C8.85973 0.960984 8.36761 1.09487 7.91829 1.39971C7.46896 1.70456 7.07617 2.17103 6.77441 2.75817" stroke="#0172E8" stroke-width="1.5" stroke-linecap="round" stroke-linejoin="round"/>
</svg>
